<svg width="30" height="30" viewBox="0 0 30 30" fill="none" xmlns="http://www.w3.org/2000/svg">
<path d="M23.75 5H22.5V2.5H20V5H10V2.5H7.5V5H6.25C4.8625 5 3.7625 6.125 3.7625 7.5L3.75 25C3.75 25.663 4.01339 26.2989 4.48223 26.7678C4.95107 27.2366 5.58696 27.5 6.25 27.5H23.75C25.125 27.5 26.25 26.375 26.25 25V7.5C26.25 6.125 25.125 5 23.75 5ZM23.75 25H6.25V12.5H23.75V25ZM11.25 17.5H8.75V15H11.25V17.5ZM16.25 17.5H13.75V15H16.25V17.5ZM21.25 17.5H18.75V15H21.25V17.5ZM11.25 22.5H8.75V20H11.25V22.5ZM16.25 22.5H13.75V20H16.25V22.5ZM21.25 22.5H18.75V20H21.25V22.5Z" fill="currentColor"/>
</svg>
