<svg width="30" height="30" viewBox="0 0 30 30" fill="none" xmlns="http://www.w3.org/2000/svg">
<path d="M11.2537 7.50016C11.2537 6.50659 11.6484 5.55372 12.351 4.85116C13.0536 4.1486 14.0064 3.75391 15 3.75391C15.9936 3.75391 16.9464 4.1486 17.649 4.85116C18.3516 5.55372 18.7463 6.50659 18.7463 7.50016C18.7463 8.49372 18.3516 9.4466 17.649 10.1492C16.9464 10.8517 15.9936 11.2464 15 11.2464C14.0064 11.2464 13.0536 10.8517 12.351 10.1492C11.6484 9.4466 11.2537 8.49372 11.2537 7.50016ZM15 5.62891C14.7543 5.62891 14.5109 5.67731 14.2839 5.77135C14.0569 5.86539 13.8506 6.00322 13.6768 6.17698C13.5031 6.35074 13.3652 6.55703 13.2712 6.78406C13.1772 7.01109 13.1287 7.25442 13.1287 7.50016C13.1287 7.74589 13.1772 7.98922 13.2712 8.21625C13.3652 8.44328 13.5031 8.64957 13.6768 8.82333C13.8506 8.99709 14.0569 9.13493 14.2839 9.22897C14.5109 9.32301 14.7543 9.37141 15 9.37141C15.4963 9.37141 15.9722 9.17426 16.3232 8.82333C16.6741 8.4724 16.8713 7.99644 16.8713 7.50016C16.8713 7.00387 16.6741 6.52791 16.3232 6.17698C15.9722 5.82606 15.4963 5.62891 15 5.62891ZM20.625 8.43766C20.625 8.06831 20.6977 7.70259 20.8391 7.36136C20.9804 7.02013 21.1876 6.71008 21.4488 6.44892C21.7099 6.18775 22.02 5.98059 22.3612 5.83924C22.7024 5.6979 23.0682 5.62516 23.4375 5.62516C23.8068 5.62516 24.1726 5.6979 24.5138 5.83924C24.855 5.98059 25.1651 6.18775 25.4262 6.44892C25.6874 6.71008 25.8946 7.02013 26.0359 7.36136C26.1773 7.70259 26.25 8.06831 26.25 8.43766C26.25 9.18358 25.9537 9.89895 25.4262 10.4264C24.8988 10.9538 24.1834 11.2502 23.4375 11.2502C22.6916 11.2502 21.9762 10.9538 21.4488 10.4264C20.9213 9.89895 20.625 9.18358 20.625 8.43766ZM23.4375 7.50016C23.1889 7.50016 22.9504 7.59893 22.7746 7.77474C22.5988 7.95056 22.5 8.18902 22.5 8.43766C22.5 8.6863 22.5988 8.92475 22.7746 9.10057C22.9504 9.27638 23.1889 9.37516 23.4375 9.37516C23.6861 9.37516 23.9246 9.27638 24.1004 9.10057C24.2762 8.92475 24.375 8.6863 24.375 8.43766C24.375 8.18902 24.2762 7.95056 24.1004 7.77474C23.9246 7.59893 23.6861 7.50016 23.4375 7.50016ZM6.5625 5.62516C5.81658 5.62516 5.10121 5.92147 4.57376 6.44892C4.04632 6.97636 3.75 7.69173 3.75 8.43766C3.75 9.18358 4.04632 9.89895 4.57376 10.4264C5.10121 10.9538 5.81658 11.2502 6.5625 11.2502C7.30842 11.2502 8.02379 10.9538 8.55124 10.4264C9.07868 9.89895 9.375 9.18358 9.375 8.43766C9.375 7.69173 9.07868 6.97636 8.55124 6.44892C8.02379 5.92147 7.30842 5.62516 6.5625 5.62516ZM5.625 8.43766C5.625 8.18902 5.72377 7.95056 5.89959 7.77474C6.0754 7.59893 6.31386 7.50016 6.5625 7.50016C6.81114 7.50016 7.0496 7.59893 7.22541 7.77474C7.40123 7.95056 7.5 8.18902 7.5 8.43766C7.5 8.6863 7.40123 8.92475 7.22541 9.10057C7.0496 9.27638 6.81114 9.37516 6.5625 9.37516C6.31386 9.37516 6.0754 9.27638 5.89959 9.10057C5.72377 8.92475 5.625 8.6863 5.625 8.43766ZM8.0025 13.1252C7.67251 13.6949 7.49914 14.3418 7.5 15.0002H3.75V19.6877C3.74985 20.154 3.86568 20.6131 4.08706 21.0236C4.30845 21.4341 4.62844 21.7831 5.01823 22.0392C5.40802 22.2953 5.85537 22.4504 6.32002 22.4906C6.78466 22.5308 7.25201 22.4548 7.68 22.2695C7.81875 22.8902 8.03625 23.4827 8.3175 24.0358C7.60587 24.3231 6.83458 24.4313 6.07136 24.3509C5.30813 24.2705 4.57633 24.0039 3.9402 23.5746C3.30408 23.1453 2.7831 22.5663 2.42301 21.8886C2.06292 21.2109 1.87474 20.4551 1.875 19.6877V15.0002C1.875 14.5029 2.07254 14.026 2.42417 13.6743C2.77581 13.3227 3.25272 13.1252 3.75 13.1252H8.0025ZM21.6825 24.0358C22.3941 24.3231 23.1654 24.4313 23.9286 24.3509C24.6919 24.2705 25.4237 24.0039 26.0598 23.5746C26.6959 23.1453 27.2169 22.5663 27.577 21.8886C27.9371 21.2109 28.1253 20.4551 28.125 19.6877V15.0002C28.125 14.5029 27.9275 14.026 27.5758 13.6743C27.2242 13.3227 26.7473 13.1252 26.25 13.1252H21.9975C22.3162 13.6764 22.5 14.3158 22.5 15.0002H26.25V19.6877C26.2502 20.154 26.1343 20.6131 25.9129 21.0236C25.6916 21.4341 25.3716 21.7831 24.9818 22.0392C24.592 22.2953 24.1446 22.4504 23.68 22.4906C23.2153 22.5308 22.748 22.4548 22.32 22.2695C22.1794 22.8902 21.9638 23.4827 21.6825 24.0358ZM11.25 13.1233C10.7527 13.1233 10.2758 13.3208 9.92418 13.6725C9.57254 14.0241 9.375 14.501 9.375 14.9983V20.6252C9.375 22.117 9.96763 23.5477 11.0225 24.6026C12.0774 25.6575 13.5082 26.2502 15 26.2502C16.4918 26.2502 17.9226 25.6575 18.9775 24.6026C20.0324 23.5477 20.625 22.117 20.625 20.6252V15.0002C20.625 14.5029 20.4275 14.026 20.0758 13.6743C19.7242 13.3227 19.2473 13.1252 18.75 13.1252H11.25V13.1233ZM11.25 14.9983H18.75V20.6252C18.75 21.6197 18.3549 22.5735 17.6516 23.2768C16.9484 23.9801 15.9946 24.3752 15 24.3752C14.0054 24.3752 13.0516 23.9801 12.3483 23.2768C11.6451 22.5735 11.25 21.6197 11.25 20.6252V14.9983Z" fill="#ADB7C2"/>
<path fill-rule="evenodd" clip-rule="evenodd" d="M15 4.22266C14.1308 4.22266 13.2971 4.56796 12.6825 5.18261C12.0678 5.79726 11.7225 6.63091 11.7225 7.50016C11.7225 8.3694 12.0678 9.20305 12.6825 9.8177C13.2971 10.4323 14.1308 10.7777 15 10.7777C15.8692 10.7777 16.7029 10.4323 17.3175 9.8177C17.9322 9.20305 18.2775 8.3694 18.2775 7.50016C18.2775 6.63091 17.9322 5.79726 17.3175 5.18261C16.7029 4.56796 15.8692 4.22266 15 4.22266ZM12.0195 4.5197C12.81 3.72924 13.8821 3.28516 15 3.28516C16.1179 3.28516 17.19 3.72924 17.9805 4.5197C18.7709 5.31017 19.215 6.38227 19.215 7.50016C19.215 8.61804 18.7709 9.69015 17.9805 10.4806C17.19 11.2711 16.1179 11.7152 15 11.7152C13.8821 11.7152 12.81 11.2711 12.0195 10.4806C11.2291 9.69015 10.785 8.61804 10.785 7.50016C10.785 6.38227 11.2291 5.31017 12.0195 4.5197ZM4.24231 6.11746C4.85766 5.50211 5.69226 5.15641 6.5625 5.15641C7.43274 5.15641 8.26734 5.50211 8.88269 6.11746C9.49805 6.73282 9.84375 7.56741 9.84375 8.43766C9.84375 9.3079 9.49805 10.1425 8.88269 10.7579C8.26734 11.3732 7.43274 11.7189 6.5625 11.7189C5.69226 11.7189 4.85766 11.3732 4.24231 10.7579C3.62695 10.1425 3.28125 9.3079 3.28125 8.43766C3.28125 7.56741 3.62695 6.73282 4.24231 6.11746ZM6.5625 6.09391C5.9409 6.09391 5.34476 6.34084 4.90522 6.78037C4.46568 7.21991 4.21875 7.81605 4.21875 8.43766C4.21875 9.05926 4.46568 9.6554 4.90522 10.0949C5.34476 10.5345 5.9409 10.7814 6.5625 10.7814C7.1841 10.7814 7.78024 10.5345 8.21978 10.0949C8.65932 9.6554 8.90625 9.05926 8.90625 8.43766C8.90625 7.81605 8.65932 7.21991 8.21978 6.78037C7.78024 6.34084 7.1841 6.09391 6.5625 6.09391ZM23.4375 6.09391C23.1297 6.09391 22.8249 6.15453 22.5406 6.27231C22.2562 6.3901 21.9979 6.56274 21.7802 6.78037C21.5626 6.99801 21.3899 7.25638 21.2722 7.54074C21.1544 7.8251 21.0938 8.12987 21.0938 8.43766C21.0938 9.05926 21.3407 9.6554 21.7802 10.0949C22.2198 10.5345 22.8159 10.7814 23.4375 10.7814C24.0591 10.7814 24.6552 10.5345 25.0948 10.0949C25.5343 9.6554 25.7812 9.05926 25.7812 8.43766C25.7812 8.12987 25.7206 7.8251 25.6028 7.54074C25.4851 7.25638 25.3124 6.99801 25.0948 6.78037C24.8771 6.56274 24.6188 6.3901 24.3344 6.27231C24.0501 6.15453 23.7453 6.09391 23.4375 6.09391ZM22.1818 5.40618C22.5799 5.24128 23.0066 5.15641 23.4375 5.15641C23.8684 5.15641 24.2951 5.24128 24.6932 5.40618C25.0913 5.57107 25.453 5.81277 25.7577 6.11746C26.0624 6.42215 26.3041 6.78388 26.469 7.18198C26.6339 7.58008 26.7188 8.00676 26.7188 8.43766C26.7188 9.3079 26.373 10.1425 25.7577 10.7579C25.1423 11.3732 24.3077 11.7189 23.4375 11.7189C22.5673 11.7189 21.7327 11.3732 21.1173 10.7579C20.502 10.1425 20.1562 9.3079 20.1562 8.43766C20.1562 8.00676 20.2411 7.58008 20.406 7.18198C20.5709 6.78388 20.8126 6.42215 21.1173 6.11746C21.422 5.81277 21.7837 5.57107 22.1818 5.40618ZM14.1045 5.33828C14.3884 5.22068 14.6927 5.16016 15 5.16016C15.6206 5.16016 16.2158 5.40669 16.6546 5.84553C17.0935 6.28436 17.34 6.87955 17.34 7.50016C17.34 8.12076 17.0935 8.71595 16.6546 9.15479C16.2158 9.59362 15.6206 9.84016 15 9.84016C14.6927 9.84016 14.3884 9.77963 14.1045 9.66203C13.8206 9.54444 13.5627 9.37208 13.3454 9.15479C13.1281 8.9375 12.9557 8.67954 12.8381 8.39564C12.7205 8.11173 12.66 7.80745 12.66 7.50016C12.66 7.19286 12.7205 6.88858 12.8381 6.60468C12.9557 6.32078 13.1281 6.06282 13.3454 5.84553C13.5627 5.62824 13.8206 5.45587 14.1045 5.33828ZM15 6.09766C14.8158 6.09766 14.6334 6.13393 14.4633 6.20441C14.2931 6.2749 14.1385 6.3782 14.0083 6.50844C13.878 6.63867 13.7747 6.79328 13.7043 6.96344C13.6338 7.1336 13.5975 7.31598 13.5975 7.50016C13.5975 7.68433 13.6338 7.86671 13.7043 8.03687C13.7747 8.20703 13.878 8.36164 14.0083 8.49187C14.1385 8.62211 14.2931 8.72542 14.4633 8.7959C14.6334 8.86638 14.8158 8.90266 15 8.90266C15.372 8.90266 15.7287 8.75489 15.9917 8.49187C16.2547 8.22885 16.4025 7.87212 16.4025 7.50016C16.4025 7.12819 16.2547 6.77146 15.9917 6.50844C15.7287 6.24542 15.372 6.09766 15 6.09766ZM6.5625 7.96891C6.43818 7.96891 6.31895 8.01829 6.23104 8.1062C6.14314 8.19411 6.09375 8.31334 6.09375 8.43766C6.09375 8.56198 6.14314 8.6812 6.23104 8.76911C6.31895 8.85702 6.43818 8.90641 6.5625 8.90641C6.68682 8.90641 6.80605 8.85702 6.89396 8.76911C6.98186 8.6812 7.03125 8.56198 7.03125 8.43766C7.03125 8.31334 6.98186 8.19411 6.89396 8.1062C6.80605 8.01829 6.68682 7.96891 6.5625 7.96891ZM5.56813 7.44329C5.83185 7.17956 6.18954 7.03141 6.5625 7.03141C6.93546 7.03141 7.29315 7.17956 7.55687 7.44329C7.82059 7.70701 7.96875 8.06469 7.96875 8.43766C7.96875 8.81062 7.82059 9.1683 7.55687 9.43202C7.29315 9.69575 6.93546 9.84391 6.5625 9.84391C6.18954 9.84391 5.83185 9.69575 5.56813 9.43202C5.30441 9.1683 5.15625 8.81062 5.15625 8.43766C5.15625 8.06469 5.30441 7.70701 5.56813 7.44329ZM22.4431 7.44329C22.7069 7.17956 23.0645 7.03141 23.4375 7.03141C23.8105 7.03141 24.1681 7.17956 24.4319 7.44329C24.6956 7.70701 24.8438 8.0647 24.8438 8.43766C24.8438 8.81062 24.6956 9.1683 24.4319 9.43202C24.1681 9.69575 23.8105 9.84391 23.4375 9.84391C23.0645 9.84391 22.7069 9.69575 22.4431 9.43202C22.1794 9.1683 22.0312 8.81062 22.0312 8.43766C22.0312 8.0647 22.1794 7.70701 22.4431 7.44329ZM23.4375 7.96891C23.3132 7.96891 23.194 8.01829 23.106 8.1062C23.0181 8.19411 22.9688 8.31334 22.9688 8.43766C22.9688 8.56198 23.0181 8.68121 23.106 8.76911C23.194 8.85702 23.3132 8.90641 23.4375 8.90641C23.5618 8.90641 23.681 8.85702 23.769 8.76911C23.8569 8.68121 23.9062 8.56198 23.9062 8.43766C23.9062 8.31334 23.8569 8.19411 23.769 8.1062C23.681 8.01829 23.5618 7.96891 23.4375 7.96891ZM9.59272 13.341C10.0323 12.9015 10.6284 12.6545 11.25 12.6545H11.7188V12.6564H18.75C19.3716 12.6564 19.9677 12.9033 20.4073 13.3429C20.8468 13.7824 21.0938 14.3786 21.0938 15.0002V20.6252C21.0938 22.2413 20.4517 23.7913 19.3089 24.9341C18.1661 26.0769 16.6162 26.7189 15 26.7189C13.3838 26.7189 11.8339 26.0769 10.6911 24.9341C9.54827 23.7913 8.90625 22.2413 8.90625 20.6252V14.9983C8.90625 14.3767 9.15318 13.7805 9.59272 13.341ZM11.1774 13.5939C10.8309 13.6118 10.5022 13.7574 10.2556 14.0039C9.99191 14.2676 9.84375 14.6253 9.84375 14.9983V20.6252C9.84375 21.9927 10.387 23.3042 11.354 24.2712C12.321 25.2382 13.6325 25.7814 15 25.7814C16.3675 25.7814 17.679 25.2382 18.646 24.2712C19.613 23.3042 20.1562 21.9927 20.1562 20.6252V15.0002C20.1562 14.6272 20.0081 14.2695 19.7444 14.0058C19.4806 13.7421 19.123 13.5939 18.75 13.5939H11.1774ZM3.75 13.5939C3.37704 13.5939 3.01935 13.7421 2.75563 14.0058C2.49191 14.2695 2.34375 14.6272 2.34375 15.0002V19.6877C2.34352 20.3784 2.51288 21.0587 2.83696 21.6687C3.16104 22.2786 3.62992 22.7997 4.20243 23.1861C4.77494 23.5725 5.43357 23.8124 6.12047 23.8847C6.6421 23.9397 7.16791 23.8968 7.67122 23.7597C7.54843 23.4726 7.44155 23.1768 7.35228 22.8734C7.00298 22.96 6.64059 22.9888 6.2796 22.9576C5.73752 22.9107 5.2156 22.7297 4.76085 22.431C4.3061 22.1322 3.93277 21.725 3.67449 21.2461C3.41623 20.7673 3.2811 20.2317 3.28125 19.6877V14.5314H7.05694C7.09251 14.2114 7.16472 13.8968 7.27194 13.5939H3.75ZM2.09272 13.3429C2.53226 12.9033 3.1284 12.6564 3.75 12.6564H8.81571L8.40812 13.3601C8.11959 13.8582 7.968 14.4239 7.96875 14.9995L7.96936 15.4689H4.21875V19.6877C4.21862 20.0763 4.31515 20.459 4.49964 20.8011C4.68412 21.1432 4.95078 21.434 5.27561 21.6474C5.60043 21.8608 5.97323 21.9901 6.36043 22.0236C6.74763 22.0571 7.13709 21.9938 7.49375 21.8394L8.01381 21.6142L8.13746 22.1673C8.26731 22.7481 8.47111 23.3037 8.73534 23.8233L8.96705 24.279L8.493 24.4704C7.71021 24.7865 6.86179 24.9055 6.02224 24.8171C5.1827 24.7286 4.37771 24.4354 3.67797 23.9631C2.97824 23.4909 2.40516 22.854 2.00906 22.1085C1.61299 21.3631 1.40599 20.5318 1.40625 19.6877V15.0002C1.40625 14.3786 1.65318 13.7824 2.09272 13.3429ZM21.185 12.6564H26.25C26.8716 12.6564 27.4677 12.9033 27.9073 13.3429C28.3468 13.7824 28.5938 14.3786 28.5938 15.0002V19.6875C28.594 20.5316 28.387 21.3631 27.9909 22.1085C27.5948 22.854 27.0218 23.4909 26.322 23.9631C25.6223 24.4354 24.8173 24.7286 23.9778 24.8171C23.1382 24.9055 22.2898 24.7865 21.507 24.4704L21.0329 24.279L21.2647 23.8233C21.5285 23.3045 21.7308 22.7485 21.8628 22.1659L21.9877 21.6149L22.5063 21.8394C22.8629 21.9938 23.2524 22.0571 23.6396 22.0236C24.0268 21.9901 24.3996 21.8608 24.7244 21.6474C25.0492 21.434 25.3159 21.1432 25.5004 20.8011C25.6849 20.459 25.7814 20.0765 25.7812 19.6878V15.4689H22.0312V15.0002C22.0312 14.4009 21.8706 13.8422 21.5917 13.3598L21.185 12.6564ZM22.728 13.5939C22.8337 13.8923 22.9068 14.2062 22.9429 14.5314H26.7188V19.6875C26.7189 20.2316 26.5838 20.7673 26.3255 21.2461C26.0672 21.725 25.6939 22.1322 25.2392 22.431C24.7844 22.7297 24.2625 22.9107 23.7204 22.9576C23.3591 22.9889 22.9965 22.9599 22.647 22.8732C22.5576 23.1763 22.4511 23.4722 22.3285 23.7596C22.8319 23.8967 23.3578 23.9397 23.8795 23.8847C24.5664 23.8124 25.2251 23.5725 25.7976 23.1861C26.3701 22.7997 26.839 22.2786 27.163 21.6687C27.4871 21.0587 27.6565 20.3785 27.6562 19.6878V15.0002C27.6562 14.6272 27.5081 14.2695 27.2444 14.0058C26.9806 13.7421 26.623 13.5939 26.25 13.5939H22.728ZM10.7812 14.5295H19.2188V20.6252C19.2188 21.744 18.7743 22.8171 17.9831 23.6083C17.1919 24.3994 16.1189 24.8439 15 24.8439C13.8811 24.8439 12.8081 24.3994 12.0169 23.6083C11.2257 22.8171 10.7812 21.744 10.7812 20.6252V14.5295ZM11.7188 15.467V20.6252C11.7188 21.4954 12.0645 22.33 12.6798 22.9453C13.2952 23.5607 14.1298 23.9064 15 23.9064C15.8702 23.9064 16.7048 23.5607 17.3202 22.9453C17.9355 22.33 18.2812 21.4954 18.2812 20.6252V15.467H11.7188Z" fill="currentColor"/>
</svg>
