<svg width="12" height="7" viewBox="0 0 12 7" fill="none" xmlns="http://www.w3.org/2000/svg">
<path d="M5.9998 0.0251951C5.86647 0.0251951 5.73747 0.0501957 5.6128 0.100196C5.48747 0.150196 5.38314 0.216862 5.2998 0.300196L0.699804 4.9002C0.516471 5.08353 0.424805 5.31686 0.424805 5.6002C0.424805 5.88353 0.516471 6.11686 0.699804 6.3002C0.883138 6.48353 1.11647 6.5752 1.3998 6.5752C1.68314 6.5752 1.91647 6.48353 2.0998 6.3002L5.9998 2.4002L9.8998 6.3002C10.0831 6.48353 10.3165 6.5752 10.5998 6.5752C10.8831 6.5752 11.1165 6.48353 11.2998 6.3002C11.4831 6.11686 11.5748 5.88353 11.5748 5.6002C11.5748 5.31686 11.4831 5.08353 11.2998 4.9002L6.6998 0.300196C6.5998 0.200196 6.49147 0.129529 6.3748 0.0881958C6.25814 0.046196 6.13314 0.0251951 5.9998 0.0251951Z" fill="black"/>
</svg>
