<svg width="24" height="24" viewBox="0 0 24 24" fill="none" xmlns="http://www.w3.org/2000/svg">
<g clip-path="url(#clip0_3126_71652)">
<path d="M18.3634 5.63604C18.504 5.77669 18.583 5.96746 18.583 6.16637C18.583 6.36528 18.504 6.55605 18.3634 6.6967L13.0601 12L18.3634 17.3033C18.504 17.444 18.583 17.6347 18.583 17.8336C18.583 18.0325 18.504 18.2233 18.3634 18.364C18.2227 18.5046 18.0319 18.5836 17.833 18.5836C17.6341 18.5836 17.4434 18.5046 17.3027 18.364L11.9994 13.0607L6.69611 18.364C6.55545 18.5046 6.36469 18.5836 6.16578 18.5836C5.96686 18.5836 5.7761 18.5046 5.63545 18.364C5.49479 18.2233 5.41578 18.0325 5.41578 17.8336C5.41578 17.6347 5.49479 17.444 5.63545 17.3033L10.9387 12L5.63545 6.6967C5.49479 6.55605 5.41578 6.36528 5.41578 6.16637C5.41578 5.96746 5.49479 5.77669 5.63545 5.63604C5.7761 5.49539 5.96686 5.41637 6.16578 5.41637C6.36469 5.41637 6.55545 5.49539 6.69611 5.63604L11.9994 10.9393L17.3027 5.63604C17.4434 5.49539 17.6341 5.41637 17.833 5.41637C18.0319 5.41637 18.2227 5.49539 18.3634 5.63604Z" fill="#9A9A9A"/>
</g>
<defs>
<clipPath id="clip0_3126_71652">
<rect width="24" height="24" fill="white"/>
</clipPath>
</defs>
</svg>
