<svg width="24" height="24" viewBox="0 0 24 24" fill="none" xmlns="http://www.w3.org/2000/svg">
<path d="M10.7578 11.828L18.6068 3.979L20.0208 5.393L18.6068 6.808L21.0808 9.282L19.6668 10.697L17.1918 8.222L15.7778 9.636L17.8988 11.757L16.4848 13.172L14.3638 11.05L12.1718 13.242C12.8522 14.276 13.1251 15.5256 12.9377 16.7491C12.7503 17.9727 12.1158 19.0832 11.1571 19.8661C10.1983 20.649 8.98328 21.0486 7.74697 20.9876C6.51066 20.9267 5.34088 20.4094 4.46379 19.536C3.58482 18.6603 3.06282 17.4891 2.99925 16.25C2.93567 15.0109 3.33507 13.7925 4.11981 12.8314C4.90454 11.8704 6.01857 11.2354 7.24535 11.05C8.47214 10.8646 9.72406 11.1419 10.7578 11.828ZM10.1208 18.121C10.4121 17.8455 10.6452 17.5143 10.8064 17.1471C10.9675 16.7799 11.0534 16.3842 11.059 15.9832C11.0646 15.5823 10.9897 15.1843 10.8388 14.8128C10.688 14.4412 10.4641 14.1037 10.1806 13.8202C9.89706 13.5367 9.55956 13.3128 9.18804 13.162C8.81651 13.0111 8.41852 12.9362 8.01757 12.9418C7.61662 12.9474 7.22086 13.0333 6.85368 13.1944C6.48649 13.3556 6.15534 13.5887 5.87979 13.88C5.33332 14.4458 5.03094 15.2036 5.03777 15.9902C5.04461 16.7768 5.36011 17.5292 5.91634 18.0855C6.47256 18.6417 7.225 18.9572 8.01159 18.964C8.79818 18.9709 9.55599 18.6685 10.1218 18.122L10.1208 18.121Z" fill="#8E68F3"/>
</svg>
