<svg width="30" height="30" viewBox="0 0 30 30" fill="none" xmlns="http://www.w3.org/2000/svg">
<path d="M7.5 2.5H18.75C19.413 2.5 20.0489 2.76339 20.5178 3.23223C20.9866 3.70107 21.25 4.33696 21.25 5V6.25C21.25 6.58152 21.1183 6.89946 20.8839 7.13388C20.6495 7.3683 20.3315 7.5 20 7.5C19.6685 7.5 19.3505 7.3683 19.1161 7.13388C18.8817 6.89946 18.75 6.58152 18.75 6.25V5H7.5V25H18.75V23.75C18.75 23.4185 18.8817 23.1005 19.1161 22.8661C19.3505 22.6317 19.6685 22.5 20 22.5C20.3315 22.5 20.6495 22.6317 20.8839 22.8661C21.1183 23.1005 21.25 23.4185 21.25 23.75V25C21.25 25.663 20.9866 26.2989 20.5178 26.7678C20.0489 27.2366 19.413 27.5 18.75 27.5H7.5C6.83696 27.5 6.20107 27.2366 5.73223 26.7678C5.26339 26.2989 5 25.663 5 25V5C5 4.33696 5.26339 3.70107 5.73223 3.23223C6.20107 2.76339 6.83696 2.5 7.5 2.5Z" fill="currentColor"/>
<path d="M20.9937 20.3684C21.4812 20.8559 22.2688 20.8559 22.7563 20.3684L27.2412 15.8834C27.4756 15.649 27.6072 15.3311 27.6072 14.9997C27.6072 14.6682 27.4756 14.3503 27.2412 14.1159L22.7563 9.63092C22.5186 9.41616 22.2076 9.30091 21.8874 9.30899C21.5672 9.31707 21.2624 9.44787 21.0359 9.67434C20.8095 9.90082 20.6787 10.2057 20.6706 10.5258C20.6625 10.846 20.7777 11.1571 20.9925 11.3947L23.3375 13.7497H12.5C12.1685 13.7497 11.8505 13.8814 11.6161 14.1158C11.3817 14.3502 11.25 14.6681 11.25 14.9997C11.25 15.3312 11.3817 15.6491 11.6161 15.8836C11.8505 16.118 12.1685 16.2497 12.5 16.2497H23.3375L20.9925 18.6047C20.7592 18.8389 20.6283 19.1562 20.6285 19.4868C20.6287 19.8174 20.7601 20.1345 20.9937 20.3684Z" fill="currentColor"/>
</svg>
