<svg width="146" height="48" viewBox="0 0 146 48" fill="none" xmlns="http://www.w3.org/2000/svg">
<g clip-path="url(#clip0_10476_11031)">
<g style="mix-blend-mode:multiply">
<path d="M3.33625 42.9681C8.30864 48.9781 17.0045 49.7163 22.8388 44.5798L23.9998 43.5586L20.6634 40.6182L20.077 41.1288C18.271 42.7159 16.0604 43.4971 13.8733 43.4971C11.1173 43.4971 8.37901 42.2668 6.46745 39.8739C3.61771 36.306 3.5063 31.2803 5.90454 27.6201C6.39122 26.882 6.97173 26.1992 7.65778 25.5963L8.83637 24.5567L12.3077 21.5056L20.6575 14.1546L18.9981 12.6905C18.4293 12.1922 17.9427 11.6324 17.5322 11.0296L8.07996 19.3526L5.11294 21.9669C4.73181 22.3053 4.36826 22.662 4.02816 23.0311C3.51803 23.5786 3.06066 24.163 2.6502 24.772C-1.00873 30.1853 -0.979409 37.7701 3.33039 42.9742L3.33625 42.9681Z" fill="white"/>
</g>
<g style="mix-blend-mode:multiply">
<path d="M27.043 8.01537L30.4674 11.0296C32.6135 7.88619 32.631 3.5494 30.3325 0.356781L27.7173 6.69281C27.5238 7.15417 27.301 7.59707 27.043 8.01537Z" fill="#8E68F3"/>
</g>
<g style="mix-blend-mode:multiply">
<path d="M27.7156 6.68666L30.3308 0.356786C30.2429 0.233756 30.1549 0.116878 30.0611 0L24.0039 5.33333L27.0413 8.01538C27.2993 7.59708 27.5221 7.15417 27.7156 6.69281V6.68666Z" fill="white"/>
</g>
<g style="mix-blend-mode:multiply">
<path d="M17.668 0.356786C17.7559 0.233756 17.8439 0.116878 17.9377 0L24.0007 5.33333L27.0381 8.01538L30.4625 11.0296L39.9147 19.3526C38.4781 19.6109 37.0943 20.2691 35.8981 21.321L35.6812 21.5117L27.3372 14.1607L23.9949 11.2203L22.6638 10.0515C22.0012 9.46713 21.4207 8.77816 20.9575 8.01538C20.6936 7.59708 20.4708 7.15417 20.2773 6.69281L17.668 0.356786Z" fill="white"/>
</g>
<g style="mix-blend-mode:multiply">
<path d="M17.6663 0.356781L20.2815 6.69281C20.4692 7.15417 20.6978 7.59092 20.9617 8.01537C21.4308 8.77816 22.0054 9.46712 22.668 10.0515L23.9991 11.2203L27.3414 14.1607L35.6854 21.5117L32.3431 24.446L23.9991 17.1011L20.6568 14.1607L18.9974 12.6967C18.4286 12.1984 17.9419 11.6386 17.5315 11.0358C15.3854 7.89234 15.3619 3.5494 17.6663 0.362932V0.356781Z" fill="#8E68F3"/>
</g>
<g style="mix-blend-mode:multiply">
<path d="M9.22266 30.5483C9.52757 29.9946 9.9263 29.4841 10.4188 29.0535L12.3069 27.3864L20.6568 34.7374L23.9991 37.6778L27.3355 40.6121L27.9219 41.1227C29.7279 42.7097 31.9385 43.491 34.1257 43.491C36.8816 43.491 39.6199 42.2607 41.5315 39.8678C44.3871 36.2999 44.4926 31.268 42.0944 27.614L45.3429 24.7536C49.0077 30.1607 48.9725 37.7516 44.6627 42.9558C39.6903 48.9658 30.9945 49.704 25.1601 44.5675L23.9991 43.5463L20.6627 40.6059L17.3204 37.6655L9.22852 30.5421L9.22266 30.5483Z" fill="white"/>
</g>
<g style="mix-blend-mode:multiply">
<path d="M5.90561 27.6263C6.39229 26.8881 6.97279 26.2053 7.65884 25.6025L8.83744 24.5629L12.3087 21.5117L20.6586 14.1607L24.0009 17.1011L15.6569 24.446L12.3146 27.3864L10.4265 29.0534C9.93395 29.484 9.53522 29.9946 9.23031 30.5482C8.05171 32.689 8.30385 35.5063 10.1157 37.3825C12.0625 39.4002 15.1819 39.4556 17.3222 37.6778L20.6645 40.6182L20.0781 41.1288C18.2721 42.7159 16.0615 43.4971 13.8743 43.4971C11.1184 43.4971 8.38007 42.2668 6.46852 39.8739C3.61877 36.306 3.50737 31.2803 5.90561 27.6201V27.6263Z" fill="#8E68F3"/>
</g>
<path style="mix-blend-mode:multiply" d="M5.11486 21.9608L8.08188 19.3464C5.29077 18.8297 2.32962 19.777 0.289062 22.0838L4.03595 23.0188C4.37018 22.6497 4.73372 22.293 5.12073 21.9546L5.11486 21.9608Z" fill="#6ED3D9"/>
<g style="mix-blend-mode:multiply">
<path d="M2.65624 24.7659C3.0667 24.1569 3.52407 23.5725 4.0342 23.025L0.28732 22.09C0.187637 22.2007 0.0938187 22.3114 0 22.4283L2.65624 24.7659Z" fill="white"/>
</g>
<path style="mix-blend-mode:multiply" d="M24 31.797L32.344 24.446L35.6863 21.5117L35.9032 21.321C37.0994 20.2691 38.4891 19.6109 39.9199 19.3526C42.711 18.8358 45.6663 19.7832 47.7068 22.09L43.9658 23.025L41.3096 23.6894C40.559 23.8801 39.8319 24.1692 39.1576 24.569C38.6533 24.852 38.1842 25.1903 37.7444 25.5779L35.6863 27.3864L27.3423 34.7374L24 31.797Z" fill="#6ED3D9"/>
<g style="mix-blend-mode:multiply">
<path d="M27.3418 34.7374L35.6858 27.3864L37.744 25.5779C38.1837 25.1903 38.6528 24.852 39.1571 24.569C39.8314 24.1753 40.5585 23.88 41.3091 23.6893L43.9653 23.025L47.7063 22.09C47.806 22.2007 47.8998 22.3114 47.9936 22.4283L45.3374 24.7659L42.0889 27.6263L38.7701 30.5483L30.6782 37.6717C30.6372 37.6348 30.5961 37.604 30.5551 37.5671L27.3359 34.7313L27.3418 34.7374Z" fill="white"/>
</g>
<g style="mix-blend-mode:multiply">
<path d="M12.3066 27.3864L15.6489 24.446L23.9929 31.797L27.3352 34.7374L30.5544 37.5732C30.5954 37.6102 30.6365 37.6409 30.6775 37.6778C32.8178 39.4556 35.9372 39.4064 37.884 37.3825C39.6958 35.5063 39.9421 32.6828 38.7694 30.5483L42.0882 27.6263C44.4865 31.2803 44.3809 36.3122 41.5253 39.88C39.6138 42.273 36.8754 43.5033 34.1195 43.5033C31.9323 43.5033 29.7217 42.722 27.9157 41.135L27.3294 40.6244L23.9929 37.6901L20.6506 34.7497L12.3008 27.3987L12.3066 27.3864Z" fill="#8E68F3"/>
</g>
</g>
<path d="M60 31.0943V17.0063H62.7024L68.7123 26.9484H67.2804L73.1894 17.0063H75.8717L75.912 31.0943H72.8466L72.8264 21.6956H73.3911L68.672 29.605H67.1997L62.3797 21.6956H63.0654V31.0943H60Z" fill="#8E68F3"/>
<path d="M84.4242 31.2553C83.1873 31.2553 82.0983 31.0138 81.1571 30.5308C80.2294 30.0478 79.5101 29.3904 78.9992 28.5585C78.4883 27.7132 78.2329 26.7539 78.2329 25.6805C78.2329 24.5937 78.4816 23.6344 78.9791 22.8025C79.49 21.9572 80.1824 21.2998 81.0563 20.8302C81.9302 20.3472 82.9184 20.1057 84.0209 20.1057C85.083 20.1057 86.0376 20.3338 86.8847 20.7899C87.7451 21.2327 88.4241 21.8767 88.9216 22.722C89.419 23.5539 89.6677 24.5535 89.6677 25.7208C89.6677 25.8415 89.661 25.9824 89.6476 26.1434C89.6341 26.291 89.6207 26.4319 89.6072 26.566H80.7941V24.7346H87.9535L86.7435 25.278C86.7435 24.7145 86.6292 24.2247 86.4006 23.8088C86.1721 23.3929 85.8561 23.0709 85.4528 22.8428C85.0494 22.6013 84.5789 22.4805 84.0411 22.4805C83.5033 22.4805 83.026 22.6013 82.6092 22.8428C82.2058 23.0709 81.8899 23.3996 81.6613 23.8289C81.4327 24.2449 81.3185 24.7413 81.3185 25.3182V25.8013C81.3185 26.3916 81.4462 26.9149 81.7016 27.3711C81.9705 27.8138 82.3403 28.156 82.8109 28.3975C83.2949 28.6256 83.8596 28.7396 84.5049 28.7396C85.083 28.7396 85.5872 28.6524 86.0175 28.478C86.4611 28.3036 86.8645 28.0419 87.2275 27.6931L88.9014 29.5044C88.4039 30.0679 87.7787 30.504 87.0258 30.8126C86.2729 31.1078 85.4057 31.2553 84.4242 31.2553Z" fill="#8E68F3"/>
<path d="M96.421 31.2553C95.3992 31.2553 94.4782 31.0273 93.658 30.5711C92.8379 30.1015 92.1858 29.4507 91.7018 28.6189C91.2312 27.787 90.996 26.8075 90.996 25.6805C90.996 24.54 91.2312 23.5539 91.7018 22.722C92.1858 21.8901 92.8379 21.2461 93.658 20.7899C94.4782 20.3338 95.3992 20.1057 96.421 20.1057C97.3352 20.1057 98.1352 20.3069 98.8209 20.7094C99.5066 21.1119 100.038 21.7224 100.414 22.5409C100.791 23.3593 100.979 24.4059 100.979 25.6805C100.979 26.9417 100.797 27.9883 100.434 28.8201C100.071 29.6386 99.5469 30.2491 98.8612 30.6516C98.189 31.0541 97.3756 31.2553 96.421 31.2553ZM96.9655 28.6792C97.4764 28.6792 97.9403 28.5585 98.357 28.317C98.7738 28.0755 99.1032 27.7333 99.3452 27.2906C99.6007 26.8344 99.7284 26.2977 99.7284 25.6805C99.7284 25.0499 99.6007 24.5132 99.3452 24.0704C99.1032 23.6277 98.7738 23.2855 98.357 23.044C97.9403 22.8025 97.4764 22.6818 96.9655 22.6818C96.4411 22.6818 95.9706 22.8025 95.5538 23.044C95.137 23.2855 94.8009 23.6277 94.5454 24.0704C94.3034 24.5132 94.1824 25.0499 94.1824 25.6805C94.1824 26.2977 94.3034 26.8344 94.5454 27.2906C94.8009 27.7333 95.137 28.0755 95.5538 28.317C95.9706 28.5585 96.4411 28.6792 96.9655 28.6792ZM99.8091 31.0943V28.8805L99.8696 25.6604L99.6679 22.4604V16.161H102.814V31.0943H99.8091Z" fill="#8E68F3"/>
<path d="M106.622 31.0943V20.0252C106.622 18.8042 106.985 17.8314 107.711 17.1069C108.437 16.369 109.472 16 110.817 16C111.274 16 111.711 16.047 112.128 16.1409C112.558 16.2348 112.921 16.3824 113.217 16.5836L112.39 18.8579C112.215 18.7371 112.02 18.6432 111.805 18.5761C111.59 18.509 111.361 18.4755 111.119 18.4755C110.662 18.4755 110.306 18.6096 110.05 18.878C109.808 19.1329 109.687 19.522 109.687 20.0453V21.0516L109.768 22.4V31.0943H106.622ZM104.948 22.9233V20.5082H112.471V22.9233H104.948Z" fill="#8E68F3"/>
<path d="M120.496 31.0943V28.9811L120.295 28.5182V24.7346C120.295 24.0637 120.086 23.5405 119.669 23.1648C119.266 22.7891 118.641 22.6013 117.794 22.6013C117.216 22.6013 116.644 22.6952 116.08 22.883C115.528 23.0574 115.058 23.299 114.668 23.6075L113.538 21.4138C114.13 20.9979 114.843 20.6759 115.676 20.4478C116.51 20.2197 117.357 20.1057 118.217 20.1057C119.871 20.1057 121.155 20.4948 122.069 21.273C122.984 22.0512 123.441 23.2654 123.441 24.9157V31.0943H120.496ZM117.189 31.2553C116.342 31.2553 115.616 31.1145 115.011 30.8327C114.406 30.5375 113.942 30.1417 113.619 29.6453C113.296 29.1488 113.135 28.592 113.135 27.9748C113.135 27.3308 113.29 26.7673 113.599 26.2843C113.922 25.8013 114.426 25.4256 115.112 25.1572C115.797 24.8755 116.691 24.7346 117.794 24.7346H120.678V26.566H118.137C117.397 26.566 116.886 26.6868 116.604 26.9283C116.335 27.1698 116.201 27.4717 116.201 27.834C116.201 28.2365 116.355 28.5585 116.664 28.8C116.987 29.0281 117.424 29.1421 117.975 29.1421C118.5 29.1421 118.97 29.0214 119.387 28.7799C119.804 28.5249 120.106 28.156 120.295 27.673L120.779 29.122C120.55 29.8197 120.133 30.3497 119.528 30.712C118.923 31.0742 118.143 31.2553 117.189 31.2553Z" fill="#8E68F3"/>
<path d="M129.938 31.2553C129.011 31.2553 128.117 31.148 127.256 30.9333C126.409 30.7052 125.737 30.4235 125.239 30.0881L126.288 27.834C126.785 28.1426 127.37 28.3975 128.043 28.5987C128.728 28.7866 129.401 28.8805 130.059 28.8805C130.785 28.8805 131.296 28.7933 131.592 28.6189C131.901 28.4444 132.056 28.2029 132.056 27.8943C132.056 27.6394 131.935 27.4516 131.693 27.3308C131.464 27.1966 131.155 27.096 130.765 27.0289C130.375 26.9618 129.945 26.8948 129.474 26.8277C129.017 26.7606 128.553 26.6734 128.083 26.566C127.612 26.4453 127.182 26.2709 126.792 26.0428C126.402 25.8147 126.086 25.5061 125.844 25.117C125.616 24.7279 125.501 24.2247 125.501 23.6075C125.501 22.9233 125.696 22.3195 126.086 21.7962C126.49 21.273 127.068 20.8637 127.821 20.5686C128.574 20.26 129.474 20.1057 130.523 20.1057C131.263 20.1057 132.016 20.1862 132.782 20.3472C133.548 20.5082 134.187 20.743 134.698 21.0516L133.649 23.2855C133.125 22.9769 132.594 22.769 132.056 22.6616C131.532 22.5409 131.021 22.4805 130.523 22.4805C129.824 22.4805 129.313 22.5744 128.99 22.7623C128.668 22.9501 128.506 23.1916 128.506 23.4868C128.506 23.7551 128.621 23.9564 128.849 24.0906C129.091 24.2247 129.407 24.3321 129.797 24.4126C130.187 24.4931 130.611 24.5669 131.068 24.634C131.538 24.6876 132.009 24.7748 132.479 24.8956C132.95 25.0164 133.373 25.1908 133.75 25.4189C134.14 25.6335 134.456 25.9354 134.698 26.3245C134.94 26.7002 135.061 27.1966 135.061 27.8138C135.061 28.4847 134.859 29.0818 134.456 29.605C134.052 30.1149 133.468 30.5174 132.701 30.8126C131.948 31.1078 131.027 31.2553 129.938 31.2553Z" fill="#8E68F3"/>
<path d="M141.439 31.2553C140.161 31.2553 139.167 30.9333 138.454 30.2893C137.741 29.6319 137.385 28.6591 137.385 27.3711V17.8717H140.531V27.3308C140.531 27.787 140.652 28.1426 140.894 28.3975C141.136 28.639 141.466 28.7597 141.882 28.7597C142.38 28.7597 142.803 28.6256 143.153 28.3572L144 30.5711C143.677 30.7992 143.287 30.9736 142.83 31.0943C142.387 31.2017 141.923 31.2553 141.439 31.2553ZM135.711 22.9233V20.5082H143.234V22.9233H135.711Z" fill="#8E68F3"/>
<defs>
<clipPath id="clip0_10476_11031">
<rect width="48" height="48" fill="white"/>
</clipPath>
</defs>
</svg>
