<svg width="48" height="48" viewBox="0 0 48 48" fill="none" xmlns="http://www.w3.org/2000/svg">
<g clip-path="url(#clip0_10476_34621)">
<g style="mix-blend-mode:multiply">
<path d="M3.33625 42.9681C8.30864 48.9781 17.0045 49.7163 22.8388 44.5798L23.9998 43.5586L20.6634 40.6182L20.077 41.1288C18.271 42.7159 16.0604 43.4971 13.8733 43.4971C11.1173 43.4971 8.37901 42.2668 6.46745 39.8739C3.61771 36.306 3.5063 31.2803 5.90454 27.6201C6.39122 26.882 6.97173 26.1992 7.65778 25.5963L8.83637 24.5567L12.3077 21.5056L20.6575 14.1546L18.9981 12.6905C18.4293 12.1922 17.9427 11.6324 17.5322 11.0296L8.07996 19.3526L5.11294 21.9669C4.73181 22.3053 4.36826 22.662 4.02816 23.0311C3.51803 23.5786 3.06066 24.163 2.6502 24.772C-1.00873 30.1853 -0.979409 37.7701 3.33039 42.9742L3.33625 42.9681Z" fill="white"/>
</g>
<g style="mix-blend-mode:multiply">
<path d="M27.043 8.01537L30.4674 11.0296C32.6135 7.88619 32.631 3.5494 30.3325 0.356781L27.7173 6.69281C27.5238 7.15417 27.301 7.59707 27.043 8.01537Z" fill="#8E68F3"/>
</g>
<g style="mix-blend-mode:multiply">
<path d="M27.7156 6.68666L30.3308 0.356786C30.2429 0.233756 30.1549 0.116878 30.0611 0L24.0039 5.33333L27.0413 8.01538C27.2993 7.59708 27.5221 7.15417 27.7156 6.69281V6.68666Z" fill="white"/>
</g>
<g style="mix-blend-mode:multiply">
<path d="M17.668 0.356786C17.7559 0.233756 17.8439 0.116878 17.9377 0L24.0007 5.33333L27.0381 8.01538L30.4625 11.0296L39.9147 19.3526C38.4781 19.6109 37.0943 20.2691 35.8981 21.321L35.6812 21.5117L27.3372 14.1607L23.9949 11.2203L22.6638 10.0515C22.0012 9.46713 21.4207 8.77816 20.9575 8.01538C20.6936 7.59708 20.4708 7.15417 20.2773 6.69281L17.668 0.356786Z" fill="white"/>
</g>
<g style="mix-blend-mode:multiply">
<path d="M17.6663 0.356781L20.2815 6.69281C20.4692 7.15417 20.6978 7.59092 20.9617 8.01537C21.4308 8.77816 22.0054 9.46712 22.668 10.0515L23.9991 11.2203L27.3414 14.1607L35.6854 21.5117L32.3431 24.446L23.9991 17.1011L20.6568 14.1607L18.9974 12.6967C18.4286 12.1984 17.9419 11.6386 17.5315 11.0358C15.3854 7.89234 15.3619 3.5494 17.6663 0.362932V0.356781Z" fill="#8E68F3"/>
</g>
<g style="mix-blend-mode:multiply">
<path d="M9.22266 30.5482C9.52757 29.9946 9.9263 29.484 10.4188 29.0534L12.3069 27.3864L20.6568 34.7374L23.9991 37.6778L27.3355 40.6121L27.9219 41.1226C29.7279 42.7097 31.9385 43.491 34.1257 43.491C36.8816 43.491 39.6199 42.2607 41.5315 39.8677C44.3871 36.2999 44.4926 31.268 42.0944 27.614L45.3429 24.7536C49.0077 30.1607 48.9725 37.7516 44.6627 42.9558C39.6903 48.9658 30.9945 49.704 25.1601 44.5675L23.9991 43.5463L20.6627 40.6059L17.3204 37.6655L9.22852 30.5421L9.22266 30.5482Z" fill="white"/>
</g>
<g style="mix-blend-mode:multiply">
<path d="M5.90561 27.6263C6.39229 26.8881 6.97279 26.2053 7.65884 25.6025L8.83744 24.5629L12.3087 21.5117L20.6586 14.1607L24.0009 17.1011L15.6569 24.446L12.3146 27.3864L10.4265 29.0534C9.93395 29.484 9.53522 29.9946 9.23031 30.5482C8.05171 32.689 8.30385 35.5063 10.1157 37.3825C12.0625 39.4002 15.1819 39.4556 17.3222 37.6778L20.6645 40.6182L20.0781 41.1288C18.2721 42.7159 16.0615 43.4971 13.8743 43.4971C11.1184 43.4971 8.38007 42.2668 6.46852 39.8739C3.61877 36.306 3.50737 31.2803 5.90561 27.6201V27.6263Z" fill="#8E68F3"/>
</g>
<path style="mix-blend-mode:multiply" d="M5.11486 21.9608L8.08188 19.3464C5.29077 18.8297 2.32962 19.777 0.289062 22.0838L4.03595 23.0188C4.37018 22.6497 4.73372 22.293 5.12073 21.9546L5.11486 21.9608Z" fill="#6ED3D9"/>
<g style="mix-blend-mode:multiply">
<path d="M2.65624 24.7659C3.0667 24.1569 3.52407 23.5725 4.0342 23.025L0.28732 22.09C0.187637 22.2007 0.0938187 22.3114 0 22.4283L2.65624 24.7659Z" fill="white"/>
</g>
<path style="mix-blend-mode:multiply" d="M24 31.797L32.344 24.446L35.6863 21.5117L35.9032 21.321C37.0994 20.2691 38.4891 19.6109 39.9199 19.3526C42.711 18.8358 45.6663 19.7832 47.7068 22.09L43.9658 23.025L41.3096 23.6893C40.559 23.88 39.8319 24.1692 39.1576 24.569C38.6533 24.852 38.1842 25.1903 37.7444 25.5779L35.6863 27.3864L27.3423 34.7374L24 31.797Z" fill="#6ED3D9"/>
<g style="mix-blend-mode:multiply">
<path d="M27.3418 34.7374L35.6858 27.3864L37.744 25.5779C38.1837 25.1903 38.6528 24.852 39.1571 24.569C39.8314 24.1753 40.5585 23.88 41.3091 23.6893L43.9653 23.025L47.7063 22.09C47.806 22.2007 47.8998 22.3114 47.9936 22.4283L45.3374 24.7659L42.0889 27.6263L38.7701 30.5483L30.6782 37.6717C30.6372 37.6348 30.5961 37.604 30.5551 37.5671L27.3359 34.7313L27.3418 34.7374Z" fill="white"/>
</g>
<g style="mix-blend-mode:multiply">
<path d="M12.3066 27.3864L15.6489 24.446L23.9929 31.797L27.3352 34.7374L30.5544 37.5732C30.5954 37.6102 30.6365 37.6409 30.6775 37.6778C32.8178 39.4556 35.9372 39.4064 37.884 37.3825C39.6958 35.5063 39.9421 32.6828 38.7694 30.5483L42.0882 27.6263C44.4865 31.2803 44.3809 36.3122 41.5253 39.88C39.6138 42.273 36.8754 43.5033 34.1195 43.5033C31.9323 43.5033 29.7217 42.722 27.9157 41.135L27.3294 40.6244L23.9929 37.6901L20.6506 34.7497L12.3008 27.3987L12.3066 27.3864Z" fill="#8E68F3"/>
</g>
</g>
<defs>
<clipPath id="clip0_10476_34621">
<rect width="48" height="48" fill="white"/>
</clipPath>
</defs>
</svg>
