<svg width="120" height="74" viewBox="0 0 120 74" fill="none" xmlns="http://www.w3.org/2000/svg">
<g clip-path="url(#clip0_10638_22744)">
<path d="M66.4264 3.42987C68.9076 3.91572 71.0981 5.33281 72.607 7.3755C75.2223 10.9157 81.4289 17.6832 86.1829 9.98514C91.9005 0.727189 112.844 7.67398 116.431 18.7294C120.796 32.1786 109.083 34.2995 114.321 41.848C119.559 49.3965 120.183 62.7787 109.426 63.0345C102.461 63.2003 97.9598 60.1809 96.0831 62.9323C92.5414 68.1241 91.0102 71.5653 85.2932 70.6366C74.4818 68.8803 74.7622 62.2262 69.4142 58.3628C64.0662 54.4993 38.4666 51.9556 37.9267 35.1216C37.6015 24.9734 56.6359 25.2095 54.4705 18.6845C52.1659 11.7394 57.7023 1.72163 66.4262 3.43021L66.4264 3.42987Z" fill="#F3F9FF"/>
<path opacity="0.6" d="M18.2788 22.4291C20.3841 21.8462 22.6094 22.1458 24.5381 23.2309C27.8808 25.1113 35.2076 28.2277 36.0391 20.0019C37.0393 10.1092 55.8656 7.5344 62.7514 15.2213C71.1285 24.5723 62.8286 30.9605 69.6936 35.1041C76.5587 39.2477 82.009 50.0255 73.7585 54.4983C68.416 57.3947 63.8037 56.6905 63.3687 59.7008C62.5477 65.3814 62.6368 68.8232 57.8567 70.3232C48.8172 73.1599 46.5654 67.5667 40.9825 66.5027C35.3997 65.4387 14.5949 73.4859 7.92889 59.8308C3.91061 51.5989 18.7656 44.2517 14.6641 39.7339C10.2988 34.9252 10.8765 24.4783 18.2788 22.4294L18.2788 22.4291Z" fill="#F3F9FF"/>
<path d="M73.5497 76.1245L64.6128 63.8531C64.6128 63.8531 60.3741 58.7849 73.9697 53.546C82.559 50.2365 85.8496 53.3674 85.8496 53.3674L102.286 73.6883V76.1245H73.5497Z" fill="#BCBEC0"/>
<path d="M65.371 63.1808C65.371 63.1808 63.8778 60.9404 67.0921 58.2381C69.8428 55.9264 75.5628 54.3333 77.2536 54.0151C78.9443 53.6959 83.6017 52.2254 85.3293 54.0995C85.4676 54.249 89.327 59.1456 89.327 59.1456L83.025 63.8745L69.2687 68.783L65.371 63.1808Z" fill="#D1DBDB"/>
<path d="M81.7476 50.687C81.7476 50.687 79.6922 47.2309 77.6143 43.5209C75.3547 39.4856 73.0464 35.1552 72.7409 34.7537C72.1563 33.9828 61.6406 28.7861 61.6406 28.7861L46.1883 36.7764L50.8602 44.9624C50.8602 44.9624 42.4 41.8295 36.173 42.6054C34.6205 42.7992 33.0246 42.6074 31.563 44.1874C30.9046 44.8991 30.8888 45.6409 30.977 46.3075C31.1179 47.3765 31.8 47.7088 31.8 47.7088C31.8 47.7088 39.7585 48.3522 42.313 49.2044C45.3061 50.2022 54.8131 54.3067 58.3394 55.5464C64.1056 57.5751 68.9039 57.1625 68.9039 57.1625L76.6623 66.5099L97.0077 69.176L81.7463 50.687H81.7476Z" fill="#E5B080"/>
<path d="M75.8257 56.7582L85.1392 67.6214L97.0085 69.1762L82.5294 51.5997C82.5294 51.5997 80.7096 48.8623 79.8879 47.4932L78.109 48.8794C78.109 48.8794 80.3778 52.726 79.9893 54.4485C79.6009 56.171 75.8257 56.7572 75.8257 56.7572V56.7582Z" fill="#FFD2A2"/>
<path d="M61.1481 45.6848C60.4081 44.683 52.6747 37.3252 52.6747 37.3252L47.9936 40.8034L50.8497 44.9721L50.7917 44.9641C50.7917 44.9641 50.7404 44.945 50.6508 44.9139C49.23 44.5034 42.4355 42.026 36.4126 42.551C34.8496 42.6875 33.014 42.6162 31.5524 44.1962C30.948 44.8497 30.8532 45.6537 30.9612 46.2721C31.3391 44.8908 32.3978 43.7937 35.4092 43.4805C40.0917 42.9947 43.0188 43.9453 46.0619 44.9802C49.1063 46.0161 50.3269 46.6947 50.7312 46.9225C52.1704 47.7366 52.8248 48.4112 53.0197 48.5537C53.0974 48.6089 52.9552 48.1994 52.8512 47.9364C52.6576 47.4495 52.4535 46.2761 53.3489 46.0512C54.1469 45.8505 56.0535 45.989 57.4638 46.4738C59.09 47.0339 60.5187 47.7998 61.5102 49.1449C62.0527 49.8807 62.6229 51 63.0285 51.8642C63.1061 52.0278 63.4314 51.9997 63.4024 51.8281C63.1246 50.227 62.4807 47.4917 61.1481 45.6848Z" fill="#CE9772"/>
<path d="M58.7196 26.5798C58.7196 26.5798 47.7272 26.2335 43.9534 25.8872C40.1809 25.5419 29.1397 29.5631 28.0073 30.0309C26.8736 30.4997 26.7946 32.428 29.2003 32.7783C32.0472 33.1939 39.2538 29.1365 41.358 29.5601C43.4636 29.9857 47.1624 29.4648 48.9255 30.587C50.6887 31.7103 58.7196 26.5778 58.7196 26.5778V26.5798Z" fill="#EFBF8F"/>
<path d="M80.5571 48.5653C77.9051 44.1677 73.8139 36.3481 72.825 34.6115C71.4464 32.1944 68.6087 31.8902 68.5324 31.6573C68.057 30.2189 67.1129 29.6276 65.7487 29.2512C65.0034 29.0454 63.0757 28.4743 63.0757 28.4743C63.0757 28.4743 59.4466 25.0062 54.9209 26.4506C54.9209 26.4506 55.3515 27.9904 53.8201 29.3375C51.1694 31.6694 46.1078 34.0243 45.6035 35.0421C45.1413 35.9737 44.0668 42.0296 44.3407 43.1809C44.4144 43.4881 45.8273 44.3584 48.4345 45.8521C50.0568 46.5166 51.5948 47.1941 52.6877 47.6559C53.7082 47.5856 54.2112 45.304 53.6134 44.2048C52.718 42.5566 50.7257 41.8128 50.6124 41.6943C50.8205 40.7708 52.1781 37.8116 52.5771 37.375C52.9721 38.5454 58.0311 44.7569 58.9792 45.0089C60.6976 45.4656 63.1455 44.6626 63.1455 44.6626C63.1455 44.6626 65.2971 49.3071 66.9562 51.661C68.8734 54.3803 74.0759 55.9884 78.3291 55.08C79.7696 54.7718 83.209 52.961 80.5571 48.5643V48.5653Z" fill="#FFD2A2"/>
<path opacity="0.43" d="M61.5483 31.8826C61.73 31.7732 61.2586 31.5162 60.724 31.6407C59.0162 32.0382 57.1319 33.2709 56.1483 33.7738C51.5725 36.7731 51.7371 37.3373 50.0253 36.6848C50.7653 37.0672 51.0787 37.6123 50.8733 38.3581C50.3927 40.1067 49.6961 42.3402 49.1365 42.7076C50.1214 42.289 52.7576 44.1611 52.988 45.3927C53.2185 46.6244 52.88 47.6473 53.0618 47.5559C53.0855 47.5439 54.3785 46.3845 53.6122 44.2052C53.1197 43.2095 51.9675 42.3563 50.6099 41.7038C50.7008 41.2681 51.9675 38.1152 52.5759 37.3744C52.4942 37.0261 54.0533 36.3887 54.763 35.947C55.9679 35.1982 59.2572 33.2658 61.547 31.8826H61.5483Z" fill="#E5B080"/>
<path opacity="0.43" d="M65.5933 43.963C65.5933 43.963 66.3637 43.8355 65.7593 42.2526C64.9771 40.2018 62.4436 38.8386 62.1842 38.942C61.9788 38.9641 61.2177 38.8838 60.3631 38.8838C59.2123 38.8838 58.1062 38.7393 58.1062 38.7393C58.1062 38.7393 60.2657 40.6726 60.4935 41.0269C61.6154 42.7685 61.1637 43.4451 61.1637 43.4451C61.1637 43.4451 62.0894 42.9883 62.9282 42.7765C63.7328 42.5738 64.349 42.9602 64.5952 43.3407C64.9271 43.8526 64.1357 44.3876 64.1357 44.3876L65.5933 43.963Z" fill="#E5B080"/>
<path d="M67.3972 64.2952C69.9531 64.7359 74.0956 64.2089 77.5732 62.6972C83.6237 60.0672 84.8655 58.5796 85.7938 56.6382C86.464 55.2409 85.329 54.0996 85.329 54.0996L89.3398 59.0895C89.3398 59.0895 88.0231 64.1436 81.2562 65.8792C74.4893 67.6158 67.6948 66.5146 67.6948 66.5146L65.3694 63.181C65.3694 63.181 65.9461 64.0443 67.3959 64.2952H67.3972Z" fill="white"/>
<path d="M73.5495 76.1243L64.6125 63.8529C64.6125 63.8529 65.4803 65.3967 68.181 66.0944C70.8804 66.793 76.9467 66.3744 82.0808 63.5186C90.9716 58.5729 85.8494 53.3672 85.8494 53.3672L102.285 73.6881V76.1243H73.5495Z" fill="#686D6D"/>
<g style="mix-blend-mode:multiply" opacity="0.2">
<path d="M89.3409 59.088L86.3861 55.4121C87.3236 56.6247 86.3413 59.8981 81.7234 62.4668C76.588 65.3226 72.0597 65.8295 68.6848 65.4571C67.3799 65.3126 66.5464 64.8438 66.366 64.632L67.6116 66.4298C67.6116 66.4298 74.4917 67.6133 81.2586 65.8767C88.0255 64.1401 89.3423 59.087 89.3423 59.087L89.3409 59.088Z" fill="#686D6D"/>
</g>
<path d="M62.8497 45.4159C62.8497 45.4159 63.9361 45.0816 65.1646 44.4994C65.6742 44.2575 65.694 43.9092 65.694 43.9092C65.694 43.9092 63.6306 44.5887 61.6172 45.0455C61.5869 45.0525 62.851 45.4149 62.851 45.4149L62.8497 45.4159Z" fill="#E5B080"/>
<path d="M86.5672 54.2441L86.2934 53.9229C86.2934 53.9229 89.9592 58.7863 81.8058 63.221C76.6322 66.0357 70.583 66.5426 67.9047 65.7968C65.7004 65.1825 64.5562 63.7741 64.5562 63.7741L64.6036 63.8424C64.6088 63.8474 64.6115 63.8514 64.6115 63.8514L73.5484 76.1229H102.284V73.6867L86.5659 54.2431L86.5672 54.2441Z" fill="white"/>
<path opacity="0.22" d="M64.6122 63.8517L73.5491 76.1232H81.3918L73.1172 65.9537C72.1494 66.043 69.7305 66.305 67.9054 65.7971C65.7012 65.1827 64.5569 63.7744 64.5569 63.7744L64.6043 63.8427C64.6096 63.8477 64.6122 63.8517 64.6122 63.8517Z" fill="black"/>
<path opacity="0.43" d="M59.6084 38.8654C59.6084 38.8654 62.5158 38.6827 64.1065 36.8859C64.4594 36.4874 65.102 35.2959 65.102 35.2959V39.3533L59.6084 38.8654Z" fill="#E5B080"/>
<path d="M65.6141 43.9323C65.6141 43.9323 66.1422 43.8008 66.1896 43.594C66.3028 43.0901 66.1698 40.8968 65.9907 39.8709C65.8683 39.1732 65.4258 38.1253 64.2013 38.7215C63.4889 39.0678 61.8232 39.2445 60.7935 39.0247C61.2622 39.646 61.4229 39.7936 61.6428 41.0353C61.7047 41.3886 61.6704 42.0391 61.6704 42.0391C61.6704 42.0391 62.2445 41.1989 63.7378 41.2039C64.4422 41.2069 65.3732 41.496 65.8314 43.2999C65.8657 43.4354 65.8656 43.7957 65.6155 43.9313L65.6141 43.9323Z" fill="#CE9772"/>
<path opacity="0.66" d="M35.0982 35.0417C36.1872 34.0901 35.7355 33.1164 34.0922 32.8665C32.4476 32.6165 30.2314 33.1857 29.1425 34.1373C28.0535 35.0889 28.5051 36.0626 30.1498 36.3125C31.7944 36.5625 34.0092 35.9933 35.0982 35.0417ZM29.3268 34.1654C30.3486 33.273 32.4265 32.739 33.9697 32.9739C35.513 33.2088 35.9357 34.1222 34.9139 35.0146C33.892 35.907 31.8129 36.441 30.2696 36.2061C28.7277 35.9712 28.3037 35.0578 29.3255 34.1654H29.3268Z" fill="#A5EFE6"/>
<path d="M30.7004 37.0291C30.7978 37.0361 30.9308 37.0411 31.0282 37.0401C31.3456 37.0371 31.3996 37.0371 31.5352 37.0271C32.9507 36.9608 34.2293 36.5252 35.1063 35.944C35.1458 35.9189 35.1853 35.8928 35.2248 35.8647C35.2248 35.8647 35.2274 35.8647 35.2274 35.8627C35.7212 35.5234 36.2716 35.0034 36.3058 34.365C36.3085 34.3208 36.3085 34.2767 36.3058 34.2325C36.3058 34.2235 36.3058 34.2154 36.3058 34.2054C36.3058 34.1994 36.3032 34.1903 36.3032 34.1833C36.2993 34.1542 36.2953 34.1231 36.2887 34.093C36.2874 34.0849 36.2848 34.0769 36.2835 34.0689C36.2611 33.9675 36.2229 33.8671 36.1663 33.7698C36.1663 33.7698 36.1663 33.7687 36.1663 33.7677C36.1373 33.7165 36.1031 33.6674 36.0635 33.6172C36.057 33.6091 36.053 33.6011 36.0464 33.5931C36.0372 33.582 36.028 33.572 36.0188 33.562C36.0135 33.5559 36.0096 33.5499 36.0043 33.5439C35.999 33.5399 35.9951 33.5359 35.9924 33.5319C35.8542 33.3813 35.6988 33.2739 35.5777 33.2016C35.5711 33.1976 35.5632 33.1926 35.5553 33.1886C35.5052 33.1594 35.4631 33.1374 35.4315 33.1213C35.4262 33.1183 35.421 33.1163 35.4157 33.1133C35.3841 33.0972 35.3512 33.0832 35.3183 33.0681C35.284 33.053 35.2511 33.037 35.2142 33.0219C35.1853 33.0099 35.1537 32.9998 35.1234 32.9878C35.0878 32.9747 35.0523 32.9617 35.0141 32.9486C34.9535 32.9286 34.8903 32.9105 34.8258 32.8934C34.8166 32.8904 34.806 32.8874 34.7968 32.8844C34.7231 32.8653 34.648 32.8473 34.5703 32.8322C34.2267 32.7609 33.8474 32.7218 33.4603 32.7198C32.8625 32.7178 32.4214 32.778 32.2594 32.8041C31.759 32.8854 31.4812 32.9346 30.8057 33.1504C30.7846 33.1564 30.3277 33.305 29.8629 33.5399C29.8339 33.5549 29.8036 33.57 29.7747 33.5851C29.7694 33.5891 29.7628 33.5911 29.7575 33.5941C29.7536 33.5961 29.7483 33.5991 29.7444 33.6011C29.4178 33.7728 29.1281 33.9655 28.8924 34.1773C28.7489 34.3058 28.4105 34.6079 28.2525 35.0376C28.1024 35.4421 28.2103 35.7573 28.2643 35.8747C28.2683 35.8807 28.2709 35.8858 28.2735 35.8918C28.2762 35.8988 28.2814 35.9068 28.2841 35.9139C28.3578 36.0624 28.4329 36.1588 28.4842 36.213C28.5567 36.2893 28.6923 36.4308 28.9188 36.5613C29.2664 36.7601 29.6535 36.8865 30.1736 36.9689C30.3303 36.9889 30.5397 37.011 30.6977 37.0241L30.7004 37.0291ZM34.3425 33.4505C35.9872 33.7005 36.4375 34.6742 35.3499 35.6258C34.2609 36.5774 32.0448 37.1455 30.4001 36.8956C28.7555 36.6456 28.3051 35.672 29.3928 34.7204C30.4818 33.7687 32.6979 33.2006 34.3425 33.4495V33.4505Z" fill="#A5EFE6"/>
<path d="M33.6523 36.6222C34.6464 36.299 35.3654 35.8573 35.8025 35.3875C36.2305 34.9408 36.4609 34.3807 36.2107 33.8557C36.0606 33.5205 35.7288 33.2274 35.2126 33.0246C33.0637 32.1814 29.6467 33.1551 28.5353 34.5574C27.8743 35.3895 28.2311 36.1715 28.9 36.554C29.012 36.6182 29.1805 36.7146 29.457 36.8059C30.704 37.2175 32.3921 37.0398 33.6523 36.6222ZM29.1423 34.1388C30.2313 33.1872 32.4474 32.6181 34.0921 32.868C35.7367 33.1179 36.187 34.0916 35.0981 35.0432C34.0091 35.9948 31.7943 36.564 30.1497 36.314C28.505 36.0641 28.0534 35.0904 29.1423 34.1388Z" fill="#8FCCC2"/>
<path d="M34.3042 45.0765C32.9308 44.8677 32.5542 44.0536 33.4641 43.2596C34.3726 42.4646 36.224 41.9898 37.5974 42.1986C38.9708 42.4074 39.3474 43.2205 38.4388 44.0155C37.5289 44.8095 35.6789 45.2853 34.3055 45.0765H34.3042ZM34.9546 44.5074C35.7855 44.6338 36.9048 44.3468 37.4539 43.8659C38.0043 43.3851 37.7765 42.8933 36.9456 42.7668C36.1147 42.6413 34.9968 42.9274 34.4464 43.4082C33.8973 43.888 34.1238 44.3809 34.9546 44.5064" fill="#BCC1C4"/>
<path d="M36.0927 45.7729C36.4429 45.7207 36.8353 45.6364 37.1895 45.525C38.4154 45.1506 39.1792 44.5704 39.4702 43.9902C39.4728 43.9841 39.4767 43.9791 39.4794 43.9721C39.482 43.9691 39.4833 43.9641 39.4846 43.96C39.4873 43.954 39.4899 43.948 39.4939 43.942C39.5241 43.8797 39.5505 43.8075 39.5702 43.7282C39.5729 43.7161 39.5755 43.7041 39.5795 43.692C39.5821 43.677 39.5847 43.6609 39.5874 43.6459C39.6822 43.1108 39.3635 42.6119 38.6195 42.3198C37.5187 41.8872 35.8135 41.9996 34.3769 42.5999C34.3756 42.5999 34.3743 42.6009 34.373 42.6019C34.3716 42.6019 34.369 42.6029 34.3677 42.6039C33.2853 43.0546 32.2806 43.9199 32.6519 44.8133C33.0536 45.7709 34.7759 45.9666 36.094 45.7729H36.0927ZM34.3045 45.0753C32.9311 44.8665 32.5545 44.0524 33.4644 43.2584C34.373 42.4634 36.2243 41.9886 37.5977 42.1974C38.9711 42.4062 39.3477 43.2192 38.4391 44.0143C37.5292 44.8083 35.6792 45.2841 34.3058 45.0753H34.3045Z" fill="#D0D4D7"/>
<path d="M35.9248 44.4912C35.9327 44.4892 35.9393 44.4892 35.9472 44.4882C35.9499 44.4882 35.9525 44.4872 35.9538 44.4872C36.4924 44.3988 37.0915 44.182 37.4536 43.8648C37.7236 43.6289 37.8065 43.389 37.7209 43.1923C36.0355 39.2815 34.35 35.3696 32.6645 31.4588C32.4341 30.9248 31.2451 30.9308 30.4682 31.1436C29.7676 31.3334 28.9025 31.8413 29.1198 32.3462C30.8053 36.257 32.492 40.1678 34.1775 44.0786C34.3421 44.4611 35.0887 44.6187 35.9248 44.4902V44.4912Z" fill="#E3E6E8"/>
<path d="M29.3086 32.4631C28.2012 32.2955 27.8983 31.639 28.6305 30.9985C29.3626 30.3581 30.8545 29.9757 31.9619 30.1443C33.0693 30.313 33.3721 30.9674 32.6387 31.6079C31.9053 32.2483 30.4147 32.6317 29.3073 32.4631H29.3086Z" fill="#BCC1C4"/>
<path d="M28.405 32.8321C28.7618 33.0398 29.0818 33.0971 29.3373 33.1412C30.2195 33.2717 31.2071 33.1191 32.0024 32.814C32.936 32.4657 33.4811 31.9668 33.6326 31.4829C33.6339 31.4779 33.6365 31.4739 33.6378 31.4689C33.784 30.976 33.5233 30.5032 32.8412 30.2342C32.1275 29.9532 31.2137 29.9742 30.4328 30.1288C29.411 30.3356 28.6025 30.7753 28.2101 31.2049C28.0337 31.3926 27.9112 31.5984 27.8691 31.8172V31.8192C27.794 32.2097 28.0034 32.5952 28.405 32.83V32.8321ZM29.3083 32.4637C28.2009 32.296 27.898 31.6395 28.6302 30.9991C29.3623 30.3587 30.8542 29.9762 31.9616 30.1449C33.069 30.3135 33.3719 30.968 32.6384 31.6084C31.905 32.2488 30.4144 32.6323 29.307 32.4637H29.3083Z" fill="#D0D4D7"/>
<path d="M34.3042 45.0765C32.9308 44.8677 32.5542 44.0536 33.4641 43.2596C34.3726 42.4646 36.224 41.9898 37.5974 42.1986C38.9708 42.4074 39.3474 43.2205 38.4388 44.0155C37.5289 44.8095 35.6789 45.2853 34.3055 45.0765H34.3042ZM34.9546 44.5074C35.7855 44.6338 36.9048 44.3468 37.4539 43.8659C38.0043 43.3851 37.7765 42.8933 36.9456 42.7668C36.1147 42.6413 34.9968 42.9274 34.4464 43.4082C33.8973 43.888 34.1238 44.3809 34.9546 44.5064" fill="#BCC1C4"/>
<path d="M36.0927 45.7729C36.4429 45.7207 36.8353 45.6364 37.1895 45.525C38.4154 45.1506 39.1792 44.5704 39.4702 43.9902C39.4728 43.9841 39.4767 43.9791 39.4794 43.9721C39.482 43.9691 39.4833 43.9641 39.4846 43.96C39.4873 43.954 39.4899 43.948 39.4939 43.942C39.5241 43.8797 39.5505 43.8075 39.5702 43.7282C39.5729 43.7161 39.5755 43.7041 39.5795 43.692C39.5821 43.677 39.5847 43.6609 39.5874 43.6459C39.6822 43.1108 39.3635 42.6119 38.6195 42.3198C37.5187 41.8872 35.8135 41.9996 34.3769 42.5999C34.3756 42.5999 34.3743 42.6009 34.373 42.6019C34.3716 42.6019 34.369 42.6029 34.3677 42.6039C33.2853 43.0546 32.2806 43.9199 32.6519 44.8133C33.0536 45.7709 34.7759 45.9666 36.094 45.7729H36.0927ZM34.3045 45.0753C32.9311 44.8665 32.5545 44.0524 33.4644 43.2584C34.373 42.4634 36.2243 41.9886 37.5977 42.1974C38.9711 42.4062 39.3477 43.2192 38.4391 44.0143C37.5292 44.8083 35.6792 45.2841 34.3058 45.0753H34.3045Z" fill="#D0D4D7"/>
<path d="M35.9248 44.4912C35.9327 44.4892 35.9393 44.4892 35.9472 44.4882C35.9499 44.4882 35.9525 44.4872 35.9538 44.4872C36.4924 44.3988 37.0915 44.182 37.4536 43.8648C37.7236 43.6289 37.8065 43.389 37.7209 43.1923C36.0355 39.2815 34.35 35.3696 32.6645 31.4588C32.4341 30.9248 31.2451 30.9308 30.4682 31.1436C29.7676 31.3334 28.9025 31.8413 29.1198 32.3462C30.8053 36.257 32.492 40.1678 34.1775 44.0786C34.3421 44.4611 35.0887 44.6187 35.9248 44.4902V44.4912Z" fill="#E3E6E8"/>
<path d="M29.3086 32.4631C28.2012 32.2955 27.8983 31.639 28.6305 30.9985C29.3626 30.3581 30.8545 29.9757 31.9619 30.1443C33.0693 30.313 33.3721 30.9674 32.6387 31.6079C31.9053 32.2483 30.4147 32.6317 29.3073 32.4631H29.3086Z" fill="#BCC1C4"/>
<path d="M28.405 32.8321C28.7618 33.0398 29.0818 33.0971 29.3373 33.1412C30.2195 33.2717 31.2071 33.1191 32.0024 32.814C32.936 32.4657 33.4811 31.9668 33.6326 31.4829C33.6339 31.4779 33.6365 31.4739 33.6378 31.4689C33.784 30.976 33.5233 30.5032 32.8412 30.2342C32.1275 29.9532 31.2137 29.9742 30.4328 30.1288C29.411 30.3356 28.6025 30.7753 28.2101 31.2049C28.0337 31.3926 27.9112 31.5984 27.8691 31.8172V31.8192C27.794 32.2097 28.0034 32.5952 28.405 32.83V32.8321ZM29.3083 32.4637C28.2009 32.296 27.898 31.6395 28.6302 30.9991C29.3623 30.3587 30.8542 29.9762 31.9616 30.1449C33.069 30.3135 33.3719 30.968 32.6384 31.6084C31.905 32.2488 30.4144 32.6323 29.307 32.4637H29.3083Z" fill="#D0D4D7"/>
<path opacity="0.66" d="M34.9903 34.6283C35.492 34.1896 35.6448 33.745 35.4881 33.3796L32.4384 26.2827C31.3192 23.6759 30.1999 21.068 29.3888 19.1859C29.2255 18.8074 28.7304 18.5133 27.9469 18.3939C26.3787 18.156 24.3008 18.7151 23.304 19.5854C22.8023 20.025 22.6483 20.4687 22.8063 20.8341L25.8309 27.8727C26.9989 30.593 28.1708 33.3214 28.9055 35.0278C29.0688 35.4063 29.5639 35.7004 30.3474 35.8198C31.8749 36.0517 33.9672 35.5217 34.9916 34.6283H34.9903Z" fill="white"/>
<mask id="mask0_10638_22744" style="mask-type:luminance" maskUnits="userSpaceOnUse" x="22" y="18" width="8" height="4">
<path d="M22.8034 20.836C22.7718 20.7537 22.7428 20.6754 22.7375 20.566C22.7349 20.5088 22.7296 20.4124 22.7744 20.2548C22.8494 19.9918 23.0325 19.786 23.1312 19.6746C23.2366 19.5572 23.442 19.3674 23.8265 19.1315C24.049 18.995 24.3374 18.8585 24.6837 18.723C24.8325 18.6648 25.0906 18.5825 25.1551 18.5644C25.3991 18.4968 25.6458 18.4383 25.8951 18.3887C26.0545 18.3566 26.3942 18.2994 26.8919 18.2783C27.5635 18.2492 28.2298 18.3516 28.6748 18.5524C29.2028 18.7893 29.3372 19.0773 29.3885 19.1868C29.5465 19.5521 29.3925 19.9968 28.8908 20.4355C27.8703 21.3279 25.7911 21.8619 24.2478 21.627C24.2162 21.5527 24.2439 21.4453 24.3111 21.3851C25.7529 21.6039 27.6938 21.106 28.6485 20.2719C29.6031 19.4377 29.2081 18.5845 27.7663 18.3656C26.3244 18.1468 24.3835 18.6447 23.4288 19.4789C22.4742 20.312 22.8692 21.1662 24.3111 21.3851C24.2426 21.4453 24.2149 21.5527 24.2478 21.627C23.4631 21.5075 22.9693 21.2124 22.806 20.835L22.8034 20.836Z" fill="white"/>
</mask>
<g mask="url(#mask0_10638_22744)">
<path d="M28.8879 20.4368C29.3909 19.9981 29.5437 19.5544 29.3857 19.188C29.3067 19.0174 29.146 18.7664 28.672 18.5536C26.6968 17.6663 22.1461 19.0836 22.8018 20.8363C22.9651 21.2137 23.4589 21.5088 24.2437 21.6283C25.7869 21.8621 27.8661 21.3291 28.8866 20.4368H28.8879ZM23.426 19.4811C24.3806 18.647 26.3229 18.1491 27.7634 18.3679C29.2053 18.5868 29.6003 19.44 28.6456 20.2741C27.691 21.1073 25.7501 21.6062 24.3082 21.3874C22.8664 21.1685 22.4713 20.3153 23.426 19.4811Z" fill="#A5EFE6"/>
<path d="M24.3079 21.3871C25.7497 21.6059 27.6906 21.108 28.6453 20.2739C29.6 19.4397 29.2049 18.5865 27.7631 18.3677C26.3212 18.1488 24.3803 18.6467 23.4256 19.4809C22.471 20.314 22.866 21.1683 24.3079 21.3871C24.2394 21.4473 24.2117 21.5547 24.2447 21.629C23.4599 21.5096 22.9661 21.2144 22.8028 20.837C22.7936 20.8139 22.7817 20.7838 22.7738 20.7597C22.7659 20.7266 22.7541 20.6824 22.7475 20.6493L22.7383 20.567C22.7383 20.5278 22.7383 20.4756 22.7396 20.4365L22.7528 20.3461C22.7633 20.3 22.7791 20.2397 22.7949 20.1946L22.837 20.0942C22.8673 20.036 22.9121 19.9587 22.9476 19.9015L23.0319 19.789C23.1517 19.6515 23.1741 19.6264 23.3124 19.502L23.4572 19.3825C23.5139 19.3413 23.5889 19.2861 23.6482 19.246L23.8259 19.1336C23.8878 19.0984 23.9695 19.0502 24.034 19.0171L24.2381 18.9147C24.3039 18.8846 24.3921 18.8435 24.4593 18.8154L24.6831 18.726C24.7529 18.7009 24.8464 18.6668 24.9175 18.6427L25.1546 18.5674C25.2283 18.5473 25.3244 18.5202 25.3982 18.5002L25.6457 18.4409C25.7208 18.4259 25.8195 18.4028 25.8946 18.3907L26.1434 18.3496C26.2198 18.3396 26.3212 18.3255 26.3976 18.3165L26.6451 18.2944C26.7215 18.2914 26.8229 18.2833 26.8993 18.2813L27.1376 18.2783C27.214 18.2803 27.3154 18.2813 27.3917 18.2853L27.6116 18.3014C27.688 18.3104 27.7907 18.3215 27.8658 18.3325L28.0593 18.3667C28.1318 18.3837 28.2279 18.4048 28.299 18.4239L28.4531 18.47C28.5189 18.4941 28.6071 18.5273 28.6716 18.5544L28.7888 18.6106C28.8481 18.6427 28.9245 18.6889 28.9798 18.724L29.064 18.7862C29.1654 18.8726 29.1694 18.8756 29.2181 18.9298L29.2747 18.999C29.334 19.0874 29.3458 19.1024 29.3853 19.1888C29.5433 19.5541 29.3893 19.9988 28.8876 20.4375C28.586 20.7005 28.1923 20.9334 27.7473 21.1231C27.7762 21.108 27.8157 21.088 27.846 21.0729C27.958 21.0117 27.9777 20.9976 28.0291 20.9575C28.0133 20.9534 27.9935 20.9404 27.9777 20.9444C27.5392 21.0639 27.1376 21.2476 26.6965 21.364C26.3594 21.4533 26.0039 21.4975 25.6694 21.5979C25.6905 21.6099 25.7339 21.637 26.0868 21.5949C25.4535 21.6963 24.8122 21.7143 24.2433 21.628C24.2117 21.5537 24.2394 21.4463 24.3066 21.3861" fill="#A5EFE6"/>
</g>
<path d="M25.0015 19.7323C24.4116 19.6419 24.2509 19.2936 24.6407 18.9523C25.0305 18.611 25.8258 18.4073 26.4144 18.4966C27.0043 18.5859 27.1649 18.9353 26.7765 19.2765C26.3854 19.6178 25.5914 19.8216 25.0015 19.7323Z" fill="#84AFA9"/>
<path d="M35.0983 35.042C34.0936 35.9203 32.1264 36.4724 30.537 36.356L29.4573 36.8047C30.7043 37.2162 32.3924 37.0386 33.6525 36.621C34.6467 36.2977 35.3656 35.8561 35.8028 35.3863L35.0983 35.042Z" fill="#8FCCC2"/>
<path d="M54.9209 26.4512C47.7511 26.9541 40.0177 27.988 40.0177 27.988C40.0177 27.988 36.4374 29.7055 33.0968 31.3166C31.3824 32.2351 29.8865 32.9779 28.629 33.4748C28.0931 33.6866 27.9996 34.7366 28.6672 35.5747C29.8352 37.0403 33.1956 36.2513 34.1002 35.8739C35.9529 35.1019 40.5629 32.6236 42.1035 32.5041C43.4756 32.7099 49.5064 32.8394 51.4868 31.8446L56.16 28.503L54.9222 26.4502L54.9209 26.4512Z" fill="#FFD2A2"/>
<path d="M30.8925 25.4256C31.8485 27.7233 32.7992 30.0069 33.2521 31.1C33.3601 31.362 33.2403 31.6782 32.869 31.9854C32.1302 32.5967 30.6726 32.944 29.6139 32.7593C29.0885 32.668 28.7593 32.4632 28.6527 32.2042L26.2588 26.4454C25.291 24.1196 24.2428 21.9133 23.7859 20.8071C24.41 20.9115 25.5609 20.8743 26.3931 20.6435C27.4952 20.3383 28.0772 20.0121 28.4156 19.7109L30.8938 25.4236L30.8925 25.4256Z" fill="#A5EFE6"/>
<path d="M52.6866 47.6559C52.8065 47.4541 52.8723 47.0847 52.177 46.6902C51.1368 46.1 49.9017 45.583 49.9017 45.583C49.9017 45.583 49.4474 45.3873 49.0576 45.4124C48.8588 45.4254 48.706 45.4987 48.5875 45.586C48.5019 45.7125 48.4585 45.7968 48.4585 45.7968C48.4585 45.7968 51.1473 47.0265 52.6866 47.6549V47.6559Z" fill="#F4E7D7"/>
<path d="M65.438 43.9927C65.3274 43.788 65.168 43.5491 64.3135 43.6635C63.0362 43.8362 62.1592 44.061 62.1592 44.061C62.1592 44.061 61.6602 44.1784 61.4179 44.4123C61.2941 44.5318 61.2585 44.6663 61.2625 44.7918C61.3244 44.9263 61.3757 45.0076 61.3757 45.0076C61.3757 45.0076 62.254 44.8811 63.3061 44.6191C64.0066 44.4445 64.777 44.1604 65.438 43.9917V43.9927Z" fill="#F4E7D7"/>
<path opacity="0.43" d="M52.9315 29.8921C52.0072 30.3579 50.9616 31.1057 50.2466 31.6518C48.0318 32.2109 42.9109 31.964 42.7371 30.9602C42.6278 31.3115 42.8056 31.439 41.8075 31.984C40.1971 32.8624 36.9683 34.1342 36.4061 33.6985C36.7853 34.3389 30.5715 37.3122 28.4739 35.2905C28.7254 35.9531 30.1646 36.9759 32.7494 36.2522C34.0938 35.9671 34.5705 35.8065 36.2573 34.875C37.4305 34.3891 40.3143 32.7911 42.0735 32.507C43.7721 32.6967 47.2694 32.6877 49.5672 32.3835C49.5672 32.3835 51.4818 31.3567 53.5636 30.2485C54.9962 29.4866 54.5222 29.0901 52.9302 29.8921H52.9315Z" fill="#E5B080"/>
<path opacity="0.66" d="M28.6461 20.2732C29.6008 19.439 29.2058 18.5858 27.7639 18.367C26.322 18.1482 24.3811 18.646 23.4265 19.4802C22.4718 20.3133 22.8668 21.1676 24.3087 21.3864C25.7506 21.6052 27.6915 21.1074 28.6461 20.2732ZM24.9684 19.7141C25.3582 19.3728 26.1535 19.169 26.7434 19.2594C27.3333 19.3487 27.494 19.698 27.1042 20.0393C26.7131 20.3806 25.9191 20.5844 25.3292 20.494C24.7393 20.4047 24.5786 20.0554 24.9684 19.7141Z" fill="#6DC9BC"/>
<path d="M28.1354 20.3818C28.8834 19.7283 28.5739 19.0598 27.4441 18.8881C26.3157 18.7165 24.7948 19.1069 24.0469 19.7604C23.2989 20.4129 23.6084 21.0814 24.7382 21.2531C25.868 21.4247 27.3875 21.0342 28.1354 20.3818Z" fill="#7BC6BB"/>
<path d="M26.334 20.3723C26.7132 20.2689 27.1806 20.042 27.2952 19.7469C27.3268 19.6666 27.3255 19.5893 27.2952 19.519C27.1859 19.2651 26.7961 18.46 26.6869 18.2061C26.7474 18.3456 26.6882 18.5152 26.4972 18.6829C26.2471 18.9007 25.8112 19.0623 25.432 19.1245C25.2121 19.1607 24.9395 19.1717 24.7209 19.1386C24.422 19.0924 24.2324 18.98 24.1692 18.8354C24.2785 19.0894 24.6669 19.8944 24.7775 20.1484C24.8394 20.293 25.029 20.4054 25.3279 20.4506C25.5939 20.4907 25.9521 20.4756 26.3326 20.3723H26.334Z" fill="#57AA9C"/>
<path d="M26.8865 18.3885C27.5172 17.8375 27.2565 17.2723 26.3031 17.1278C25.3498 16.9832 24.066 17.3125 23.4339 17.8636C22.8032 18.4157 23.0639 18.9798 24.0172 19.1243C24.9706 19.2689 26.2544 18.9396 26.8865 18.3885ZM24.378 18.0071C24.6638 17.7572 25.2458 17.6076 25.679 17.6738C26.1109 17.7391 26.2294 17.9951 25.9424 18.245C25.6553 18.495 25.0746 18.6445 24.6414 18.5783C24.2095 18.512 24.091 18.2571 24.378 18.0071Z" fill="#B2B5B7"/>
<path d="M23.2852 19.297C23.5749 19.4646 23.8211 19.5078 24.0371 19.5459C24.7152 19.6463 25.4842 19.5339 26.0728 19.3371C26.7799 19.1073 27.5581 18.6355 27.6227 18.0523C27.6569 17.7311 27.4541 17.4058 26.9722 17.2161C26.1887 16.908 25.1274 17.0144 24.2794 17.3336C24.2135 17.3577 24.1477 17.3828 24.0805 17.4099C23.4511 17.6708 22.8151 18.1507 22.8599 18.6937C22.881 18.9457 23.0469 19.1595 23.2852 19.297ZM23.434 17.8626C24.0647 17.3115 25.3486 16.9822 26.3032 17.1268C27.2566 17.2713 27.5173 17.8365 26.8866 18.3876C26.2558 18.9386 24.9707 19.2689 24.0173 19.1233C23.064 18.9778 22.8033 18.4137 23.434 17.8626Z" fill="#D0D4D7"/>
<path d="M25.9436 18.2442C26.0845 18.1217 26.1266 17.9962 26.0832 17.8949L24.1199 13.3426C24.1172 13.3356 24.0856 13.2694 24.0777 13.2653C23.9013 12.9883 23.4325 12.8688 23.185 12.918C23.1112 12.906 22.7689 13.0094 22.6846 13.0465C22.707 13.0355 22.6174 13.0736 22.5134 13.1479C22.5055 13.1539 22.4212 13.2192 22.4199 13.2262C22.2645 13.3677 22.1947 13.5805 22.2777 13.8044L22.9585 15.3864C23.0572 15.6162 23.1573 15.8481 23.2574 16.081L23.7683 17.2655C23.9329 17.6479 24.0922 18.0173 24.2384 18.3576C24.2831 18.463 24.4214 18.5463 24.6413 18.5794C25.0758 18.6457 25.6644 18.4881 25.9423 18.2462L25.9436 18.2442Z" fill="#D0D4D7"/>
<path d="M22.871 13.303C22.7446 13.284 22.7091 13.2087 22.7934 13.1344C22.8776 13.0611 23.0488 13.016 23.1765 13.036C23.3029 13.0551 23.3385 13.1304 23.2542 13.2047C23.17 13.2779 22.9988 13.3221 22.871 13.303Z" fill="#707273"/>
<path d="M30.225 34.6038C31.2863 34.6891 32.9323 33.8098 32.9323 33.8098C32.9323 33.8098 34.2648 33.063 33.9488 32.3925C33.646 31.748 33.3168 31.4519 33.0969 31.3174C32.7624 31.4991 32.4227 31.6787 32.079 31.8454C30.6069 32.5611 28.8081 33.3942 28.8081 33.3942C28.8081 33.3942 28.7265 33.4224 28.6278 33.4756C28.5817 34.0457 29.5877 34.5536 30.2237 34.6048L30.225 34.6038Z" fill="#F4E7D7"/>
<path d="M30.3627 30.2725C30.3482 30.2725 30.3337 30.2745 30.3193 30.2785C29.5911 30.4411 28.8563 30.4752 28.2519 30.3769C28.1532 30.3598 28.0544 30.409 28.0333 30.4843C28.0123 30.5595 28.0755 30.6338 28.1742 30.6509C28.8366 30.7593 29.6345 30.7232 30.422 30.5475C30.5194 30.5254 30.5747 30.4481 30.5471 30.3738C30.5234 30.3106 30.4444 30.2694 30.3614 30.2735L30.3627 30.2725Z" fill="#58595B"/>
<path d="M27.9493 24.1554C27.9348 24.1554 27.9203 24.1574 27.9071 24.1605C27.1777 24.3231 26.4442 24.3572 25.8398 24.2588C25.7411 24.2418 25.6423 24.2909 25.6212 24.3662C25.6002 24.4415 25.6634 24.5168 25.7621 24.5329C26.4245 24.6413 27.2237 24.6051 28.0099 24.4295C28.1073 24.4074 28.1626 24.3301 28.1349 24.2558C28.1112 24.1926 28.0322 24.1524 27.9493 24.1554Z" fill="#58595B"/>
<path d="M28.754 26.1945C28.7395 26.1945 28.725 26.1965 28.7118 26.1995C27.9837 26.3621 27.2489 26.3973 26.6445 26.2979C26.5458 26.2818 26.447 26.33 26.4259 26.4053C26.4049 26.4806 26.4681 26.5559 26.5668 26.5719C27.2292 26.6803 28.0284 26.6442 28.8145 26.4685C28.912 26.4464 28.9673 26.3692 28.9396 26.2949C28.9159 26.2316 28.8369 26.1915 28.754 26.1945Z" fill="#58595B"/>
<path d="M29.5582 28.2334C29.5437 28.2334 29.5292 28.2354 29.516 28.2394C28.7865 28.402 28.0531 28.4362 27.4487 28.3378C27.35 28.3207 27.2512 28.3699 27.2301 28.4452C27.2091 28.5205 27.2723 28.5958 27.371 28.6118C28.0334 28.7202 28.8326 28.6841 29.6187 28.5084C29.7162 28.4864 29.7715 28.4091 29.7438 28.3348C29.7201 28.2715 29.6411 28.2314 29.5582 28.2344V28.2334Z" fill="#58595B"/>
<path d="M32.8848 30.3438C32.8374 30.3458 32.7913 30.3609 32.7571 30.39C31.8419 31.166 30.0037 31.6177 28.6606 31.3968C28.5619 31.3808 28.4631 31.4289 28.442 31.5042C28.421 31.5795 28.4842 31.6548 28.5829 31.6709C30.0419 31.9098 32.0368 31.4189 33.0297 30.5767C33.0981 30.5195 33.0915 30.4312 33.0165 30.379C32.9796 30.3529 32.9309 30.3418 32.8848 30.3428V30.3438Z" fill="#58595B"/>
<path d="M32.0265 28.301C31.9791 28.303 31.933 28.3181 31.8988 28.3472C30.9836 29.1231 29.1454 29.5748 27.801 29.354C27.7022 29.3379 27.6048 29.3861 27.5824 29.4614C27.5614 29.5367 27.6246 29.612 27.7233 29.628C29.1823 29.8669 31.1772 29.3761 32.17 28.5339C32.2385 28.4767 32.2319 28.3873 32.1569 28.3361C32.1187 28.31 32.0713 28.299 32.0252 28.301H32.0265Z" fill="#58595B"/>
<path d="M31.1669 26.2589C31.1195 26.2609 31.0734 26.2759 31.0392 26.3051C30.124 27.081 28.2858 27.5327 26.9414 27.3119C26.8426 27.2948 26.7439 27.344 26.7228 27.4193C26.7017 27.4946 26.7649 27.5698 26.8637 27.5859C28.3227 27.8248 30.3176 27.3339 31.3117 26.4918C31.3802 26.4345 31.3736 26.3452 31.2973 26.294C31.2591 26.2679 31.2117 26.2569 31.1656 26.2579L31.1669 26.2589Z" fill="#58595B"/>
<path d="M30.308 24.2169C30.2606 24.2189 30.2145 24.234 30.1803 24.2631C29.2651 25.039 27.4282 25.4907 26.0825 25.2699C25.9837 25.2538 25.8863 25.302 25.8639 25.3773C25.8428 25.4526 25.9061 25.5278 26.0048 25.5439C27.4638 25.7828 29.4587 25.292 30.4529 24.4498C30.5213 24.3926 30.5147 24.3032 30.4397 24.252C30.4015 24.2259 30.3541 24.2149 30.308 24.2159V24.2169Z" fill="#58595B"/>
<path d="M29.4483 22.1739C29.4009 22.1759 29.3548 22.191 29.3206 22.2201C28.4054 22.996 26.5672 23.4477 25.2241 23.2269C25.1253 23.2098 25.0279 23.259 25.0055 23.3343C24.9844 23.4096 25.0477 23.4849 25.1464 23.5009C26.6054 23.7398 28.6003 23.249 29.5945 22.4068C29.6616 22.3496 29.6563 22.2602 29.58 22.2091C29.5418 22.183 29.4944 22.1719 29.4483 22.1729V22.1739Z" fill="#58595B"/>
<path d="M23.0343 13.2327C23.1212 13.2166 23.245 13.1564 23.2186 13.0921L18.8746 3.29002C18.8641 3.26693 18.8351 3.24987 18.7877 3.24284C18.7679 3.23983 18.7442 3.23983 18.7219 3.24083C18.7153 3.24083 18.7087 3.24184 18.7021 3.24284C18.6942 3.24284 18.6863 3.24284 18.6784 3.24485C18.6731 3.24485 18.6692 3.24786 18.6639 3.24887C18.6402 3.25388 18.6178 3.25991 18.5955 3.26794C18.5902 3.26994 18.5836 3.27095 18.5797 3.27296C18.5783 3.27296 18.577 3.27496 18.5744 3.27597C18.5494 3.28701 18.5283 3.29906 18.5112 3.31411C18.4809 3.34021 18.473 3.36731 18.4809 3.3894L22.8223 13.1915C22.8381 13.2246 22.9066 13.2577 23.033 13.2327H23.0343Z" fill="#455560"/>
<path d="M18.648 3.43766C18.648 3.43766 18.652 3.43766 18.6533 3.43766C18.6651 3.43665 18.677 3.43264 18.6888 3.43063C18.6994 3.42862 18.7099 3.42762 18.7204 3.42461C18.7349 3.42059 18.7481 3.41457 18.7626 3.40955C18.7705 3.40654 18.7797 3.40353 18.7889 3.39951C18.7889 3.39951 18.7915 3.39951 18.7915 3.39851C18.8113 3.38847 18.8284 3.37743 18.8429 3.36538C18.8824 3.33025 18.8864 3.29411 18.8561 3.27002C18.7468 3.17968 18.6375 3.09034 18.5282 3C18.501 3.18068 18.483 3.30214 18.4742 3.36438C18.4703 3.39851 18.5019 3.42661 18.5637 3.43565C18.5888 3.43966 18.6177 3.43866 18.6454 3.43565L18.648 3.43766Z" fill="#546674"/>
<path d="M18.8406 3.30595C18.838 3.26881 18.5654 3.04697 18.5654 3.04697C18.5654 3.04697 18.5694 3.03091 18.5707 3.12326C18.572 3.23468 18.5746 3.38424 18.6629 3.39529C18.7656 3.40834 18.8459 3.36417 18.8406 3.30595Z" fill="#191B1C"/>
<path opacity="0.66" d="M18.5649 3.04785C18.5649 3.04785 18 4.54452 18 4.9641C18 5.35157 18.2476 5.60051 18.6176 5.60051C18.9876 5.60051 19.2838 5.38771 19.222 4.90388C19.2062 4.41302 18.5649 3.04785 18.5649 3.04785Z" fill="white"/>
<g style="mix-blend-mode:screen" opacity="0.34">
<path d="M18.7034 5.20706C18.7034 5.32651 18.5915 5.42388 18.4519 5.42388C18.3124 5.42388 18.2004 5.32651 18.2004 5.20706C18.2004 5.0876 18.3124 4.99023 18.4519 4.99023C18.5915 4.99023 18.7034 5.0876 18.7034 5.20706Z" fill="white"/>
</g>
</g>
<defs>
<clipPath id="clip0_10638_22744">
<rect width="120" height="74" fill="white"/>
</clipPath>
</defs>
</svg>
