<svg width="200" height="200" viewBox="0 0 200 200" fill="none" xmlns="http://www.w3.org/2000/svg">
<circle cx="103" cy="102" r="72" fill="#7A77FF"/>
<circle cx="103" cy="102" r="72" fill="url(#paint0_linear_6977_115641)" fill-opacity="0.2"/>
<path d="M118.167 84.6663H118C116.895 84.6663 116 83.7709 116 82.6663V82.333C116 81.2284 115.105 80.333 114 80.333H113.667C112.562 80.333 111.667 81.2284 111.667 82.333V82.6663C111.667 83.7709 110.771 84.6663 109.667 84.6663H96.3333C95.2288 84.6663 94.3333 83.7709 94.3333 82.6663V82.333C94.3333 81.2284 93.4379 80.333 92.3333 80.333H92C90.8954 80.333 90 81.2284 90 82.333V82.6663C90 83.7709 89.1046 84.6663 88 84.6663H87.8333C85.4283 84.6663 83.5217 86.6163 83.5217 88.9997L83.5 119.333C83.5 120.482 83.9565 121.584 84.7692 122.397C85.5819 123.21 86.6841 123.666 87.8333 123.666H118.167C120.55 123.666 122.5 121.716 122.5 119.333V88.9997C122.5 86.6163 120.55 84.6663 118.167 84.6663ZM118.167 117.333C118.167 118.438 117.271 119.333 116.167 119.333H89.8333C88.7288 119.333 87.8333 118.438 87.8333 117.333V99.6663C87.8333 98.5618 88.7288 97.6663 89.8333 97.6663H116.167C117.271 97.6663 118.167 98.5618 118.167 99.6663V117.333ZM96.5 104.333C96.5 105.438 95.6046 106.333 94.5 106.333H94.1667C93.0621 106.333 92.1667 105.438 92.1667 104.333V104C92.1667 102.895 93.0621 102 94.1667 102H94.5C95.6046 102 96.5 102.895 96.5 104V104.333ZM105.167 104.333C105.167 105.438 104.271 106.333 103.167 106.333H102.833C101.729 106.333 100.833 105.438 100.833 104.333V104C100.833 102.895 101.729 102 102.833 102H103.167C104.271 102 105.167 102.895 105.167 104V104.333ZM113.833 104.333C113.833 105.438 112.938 106.333 111.833 106.333H111.5C110.395 106.333 109.5 105.438 109.5 104.333V104C109.5 102.895 110.395 102 111.5 102H111.833C112.938 102 113.833 102.895 113.833 104V104.333ZM96.5 113C96.5 114.104 95.6046 115 94.5 115H94.1667C93.0621 115 92.1667 114.104 92.1667 113V112.666C92.1667 111.562 93.0621 110.666 94.1667 110.666H94.5C95.6046 110.666 96.5 111.562 96.5 112.666V113ZM105.167 113C105.167 114.104 104.271 115 103.167 115H102.833C101.729 115 100.833 114.104 100.833 113V112.666C100.833 111.562 101.729 110.666 102.833 110.666H103.167C104.271 110.666 105.167 111.562 105.167 112.666V113ZM113.833 113C113.833 114.104 112.938 115 111.833 115H111.5C110.395 115 109.5 114.104 109.5 113V112.666C109.5 111.562 110.395 110.666 111.5 110.666H111.833C112.938 110.666 113.833 111.562 113.833 112.666V113Z" fill="white"/>
<circle cx="25" cy="17" r="13" fill="#7A77FF"/>
<circle cx="25" cy="17" r="13" fill="url(#paint1_linear_6977_115641)" fill-opacity="0.2"/>
<circle cx="189" cy="35" r="9" fill="#7A77FF"/>
<circle cx="189" cy="35" r="9" fill="url(#paint2_linear_6977_115641)" fill-opacity="0.2"/>
<circle cx="66" cy="186" r="5" fill="#7A77FF"/>
<circle cx="66" cy="186" r="5" fill="url(#paint3_linear_6977_115641)" fill-opacity="0.2"/>
<ellipse cx="17" cy="144.5" rx="5" ry="5.5" fill="#7A77FF"/>
<ellipse cx="17" cy="144.5" rx="5" ry="5.5" fill="url(#paint4_linear_6977_115641)" fill-opacity="0.2"/>
<circle cx="175.5" cy="173.5" r="4.5" fill="#7A77FF"/>
<circle cx="175.5" cy="173.5" r="4.5" fill="url(#paint5_linear_6977_115641)" fill-opacity="0.2"/>
<circle cx="184" cy="121" r="4" fill="#7A77FF"/>
<circle cx="184" cy="121" r="4" fill="url(#paint6_linear_6977_115641)" fill-opacity="0.2"/>
<ellipse cx="114.5" cy="11" rx="2.5" ry="2" fill="#7A77FF"/>
<ellipse cx="114.5" cy="11" rx="2.5" ry="2" fill="url(#paint7_linear_6977_115641)" fill-opacity="0.2"/>
<circle cx="132" cy="184" r="2" fill="#7A77FF"/>
<circle cx="132" cy="184" r="2" fill="url(#paint8_linear_6977_115641)" fill-opacity="0.2"/>
<circle cx="5" cy="86" r="2" fill="#7A77FF"/>
<circle cx="5" cy="86" r="2" fill="url(#paint9_linear_6977_115641)" fill-opacity="0.2"/>
<defs>
<linearGradient id="paint0_linear_6977_115641" x1="104.469" y1="30" x2="149.784" y2="157.951" gradientUnits="userSpaceOnUse">
<stop offset="0.122283" stop-color="#5F5DB7" stop-opacity="0.99"/>
<stop offset="0.794837" stop-color="white" stop-opacity="0.76"/>
</linearGradient>
<linearGradient id="paint1_linear_6977_115641" x1="25.2653" y1="4" x2="33.4472" y2="27.1023" gradientUnits="userSpaceOnUse">
<stop offset="0.122283" stop-color="#5F5DB7" stop-opacity="0.99"/>
<stop offset="0.794837" stop-color="white" stop-opacity="0.76"/>
</linearGradient>
<linearGradient id="paint2_linear_6977_115641" x1="189.184" y1="26" x2="194.848" y2="41.9939" gradientUnits="userSpaceOnUse">
<stop offset="0.122283" stop-color="#5F5DB7" stop-opacity="0.99"/>
<stop offset="0.794837" stop-color="white" stop-opacity="0.76"/>
</linearGradient>
<linearGradient id="paint3_linear_6977_115641" x1="66.102" y1="181" x2="69.2489" y2="189.886" gradientUnits="userSpaceOnUse">
<stop offset="0.122283" stop-color="#5F5DB7" stop-opacity="0.99"/>
<stop offset="0.794837" stop-color="white" stop-opacity="0.76"/>
</linearGradient>
<linearGradient id="paint4_linear_6977_115641" x1="17.102" y1="139" x2="20.8227" y2="148.551" gradientUnits="userSpaceOnUse">
<stop offset="0.122283" stop-color="#5F5DB7" stop-opacity="0.99"/>
<stop offset="0.794837" stop-color="white" stop-opacity="0.76"/>
</linearGradient>
<linearGradient id="paint5_linear_6977_115641" x1="175.592" y1="169" x2="178.424" y2="176.997" gradientUnits="userSpaceOnUse">
<stop offset="0.122283" stop-color="#5F5DB7" stop-opacity="0.99"/>
<stop offset="0.794837" stop-color="white" stop-opacity="0.76"/>
</linearGradient>
<linearGradient id="paint6_linear_6977_115641" x1="184.082" y1="117" x2="186.599" y2="124.108" gradientUnits="userSpaceOnUse">
<stop offset="0.122283" stop-color="#5F5DB7" stop-opacity="0.99"/>
<stop offset="0.794837" stop-color="white" stop-opacity="0.76"/>
</linearGradient>
<linearGradient id="paint7_linear_6977_115641" x1="114.551" y1="9" x2="115.6" y2="12.7028" gradientUnits="userSpaceOnUse">
<stop offset="0.122283" stop-color="#5F5DB7" stop-opacity="0.99"/>
<stop offset="0.794837" stop-color="white" stop-opacity="0.76"/>
</linearGradient>
<linearGradient id="paint8_linear_6977_115641" x1="132.041" y1="182" x2="133.3" y2="185.554" gradientUnits="userSpaceOnUse">
<stop offset="0.122283" stop-color="#5F5DB7" stop-opacity="0.99"/>
<stop offset="0.794837" stop-color="white" stop-opacity="0.76"/>
</linearGradient>
<linearGradient id="paint9_linear_6977_115641" x1="5.04082" y1="84" x2="6.29956" y2="87.5542" gradientUnits="userSpaceOnUse">
<stop offset="0.122283" stop-color="#5F5DB7" stop-opacity="0.99"/>
<stop offset="0.794837" stop-color="white" stop-opacity="0.76"/>
</linearGradient>
</defs>
</svg>
