<svg width="140" height="112" viewBox="0 0 140 112" fill="none" xmlns="http://www.w3.org/2000/svg">
<path d="M73.5 107C103.6 107 128 83.9427 128 55.5C128 27.0573 103.6 4 73.5 4C43.4005 4 19 27.0573 19 55.5C19 83.9427 43.4005 107 73.5 107Z" fill="#87BEFF"/>
<path d="M63.0475 78.6523H54.9976V111.126H63.0475V78.6523Z" fill="#263238" stroke="#263238" stroke-width="0.7" stroke-linecap="round" stroke-linejoin="round"/>
<path d="M59.464 107.479L29.6213 109.407V111.351H88.4268V109.407L59.464 107.479Z" fill="#263238" stroke="#263238" stroke-width="0.7" stroke-linecap="round" stroke-linejoin="round"/>
<path d="M111.86 31.3643H10.2788V92.9783H111.86V31.3643Z" fill="#263238" stroke="#263238" stroke-width="0.7" stroke-linecap="round" stroke-linejoin="round"/>
<path d="M109.815 31.3643H8.23364V92.9783H109.815V31.3643Z" fill="white" stroke="#263238" stroke-width="0.7" stroke-linecap="round" stroke-linejoin="round"/>
<path d="M106.152 33.584H11.8928V90.7579H106.152V33.584Z" fill="white" stroke="#263238" stroke-width="0.7" stroke-linecap="round" stroke-linejoin="round"/>
<g clip-path="url(#clip0_6977_112227)">
<path d="M82.97 47.2676C82.97 47.2676 86.4714 63.5366 87.0941 66.5466C87.7168 69.5566 88.8601 76.7107 90.1565 79.8482C91.4529 82.9858 91.0293 87.0023 90.3811 88.1316C89.7309 89.113 88.9842 90.0368 88.1506 90.8911L83.802 85.6414C83.802 85.6414 81.2142 59.9171 81.1173 56.2739C81.0203 52.6307 82.97 47.2676 82.97 47.2676Z" fill="white" stroke="#263238" stroke-width="0.6" stroke-linecap="round" stroke-linejoin="round"/>
<path d="M85.2776 85.002C85.2776 85.002 88.0337 86.5944 88.5186 87.2701C89.0035 87.9458 89.3506 88.8058 88.9729 89.5382C88.5952 90.2706 86.5383 92.482 86.0177 92.912C85.497 93.342 85.0581 91.6268 84.9968 90.1525C84.9356 88.6782 85.2776 85.002 85.2776 85.002Z" fill="white" stroke="#263238" stroke-width="0.6" stroke-linecap="round" stroke-linejoin="round"/>
<path d="M61.4823 34.4227C61.4823 34.4227 59.2416 34.7724 58.3892 35.6985C57.535 36.5994 56.7665 37.5669 56.0924 38.5904C55.975 38.9401 42.7964 46.3445 42.7964 46.3445L43.7458 81.6517C43.7458 81.6517 44.1388 87.0904 43.4395 88.9427C42.2584 92.5847 41.6852 96.3724 41.7399 100.175C41.8624 104.687 42.1788 111.988 42.1788 111.988C42.1788 111.988 57.2612 114.766 64.5141 114.766C68.9753 114.756 73.4326 114.521 77.8662 114.062L78.4634 108.274L79.3719 114.18L82.47 113.235L85.022 95.7518C85.022 95.7518 86.7982 92.0472 86.7778 91.2345C86.7574 90.4217 87.227 89.3822 86.7114 88.6876C86.1959 87.993 85.2772 86.6037 85.2772 86.6037C85.2772 86.6037 82.9702 48.315 82.9702 47.2707C82.9702 46.2264 76.1461 40.0978 75.6408 39.8662C75.1355 39.6347 72.0221 35.3489 67.9848 34.1959C63.9475 33.0429 61.4823 34.4227 61.4823 34.4227Z" fill="white" stroke="#263238" stroke-width="0.6" stroke-linecap="round" stroke-linejoin="round"/>
<path d="M57.3738 39.7422L55.863 52.4579L62.0695 55.1276L60.5179 59.4418L76.0393 84.6936" stroke="#263238" stroke-width="0.6" stroke-linecap="round" stroke-linejoin="round"/>
<path d="M74.7122 41.1738L79.367 51.2339L77.3713 53.6958L80.6992 58.0052L79.367 85.7236" stroke="#263238" stroke-width="0.6" stroke-linecap="round" stroke-linejoin="round"/>
<path d="M60.9058 36.1608C61.0189 38.6415 61.5051 41.0955 62.3502 43.4519C63.6926 46.925 72.5889 70.8867 72.5889 70.8867L78.3411 89.6366C78.3411 89.6366 77.5806 70.5371 77.5602 69.7291C77.5398 68.921 73.2013 42.4076 73.2013 42.4076C73.2013 42.4076 72.4613 38.1265 71.2924 36.5058C70.1236 34.885 62.289 31.875 60.9058 36.1608Z" fill="#87BEFF" stroke="#263238" stroke-width="0.6" stroke-linecap="round" stroke-linejoin="round"/>
<path d="M60.3545 34.3066C60.3545 34.3066 56.7358 34.6516 57.3738 39.7454C58.0118 44.8392 58.8539 48.3123 58.8539 48.3123" stroke="#263238" stroke-width="0.6" stroke-linecap="round" stroke-linejoin="round"/>
<path d="M58.4097 55.0273C58.4097 55.0273 59.9409 60.9292 60.9872 62.55C62.0335 64.1707 65.198 65.7915 67.4489 65.7915" stroke="#263238" stroke-width="0.6" stroke-linecap="round" stroke-linejoin="round"/>
<path d="M63.2484 53.6387C63.2484 53.6387 64.9327 60.4667 65.2135 61.7425C65.4942 63.0183 64.5652 65.4424 63.0034 67.8853" stroke="#263238" stroke-width="0.6" stroke-linecap="round" stroke-linejoin="round"/>
<path d="M62.5542 68.6947C62.3935 68.6129 62.2743 68.4755 62.2227 68.3126C62.171 68.1497 62.1911 67.9745 62.2786 67.8253L62.4572 67.5229C62.5011 67.4506 62.5602 67.3872 62.6309 67.3363C62.7017 67.2854 62.7827 67.2481 62.8691 67.2265C62.9556 67.205 63.0459 67.1996 63.1347 67.2107C63.2235 67.2218 63.3089 67.2492 63.3861 67.2913C63.5467 67.3732 63.6661 67.5103 63.7186 67.6729C63.7711 67.8355 63.7525 68.0107 63.6668 68.1608L63.4882 68.4585C63.4442 68.5313 63.385 68.5953 63.314 68.6467C63.243 68.6981 63.1616 68.7359 63.0747 68.7579C62.9877 68.7799 62.8969 68.7856 62.8076 68.7748C62.7182 68.7639 62.6321 68.7367 62.5542 68.6947Z" fill="#263238"/>
<path d="M68.2859 65.9201C68.2859 66.0034 68.2678 66.0859 68.2326 66.1626C68.1975 66.2393 68.1459 66.3086 68.0811 66.3664C68.0163 66.4242 67.9395 66.4693 67.8554 66.499C67.7713 66.5286 67.6816 66.5423 67.5917 66.5391H67.2191C67.0355 66.5354 66.8607 66.4649 66.7327 66.3429C66.6048 66.2209 66.5338 66.0571 66.5352 65.887C66.5344 65.8039 66.5519 65.7216 66.5865 65.6449C66.6211 65.5682 66.6722 65.4989 66.7366 65.441C66.801 65.3831 66.8775 65.338 66.9613 65.3082C67.0451 65.2785 67.1345 65.2648 67.2242 65.268H67.5968C67.7805 65.2729 67.955 65.3436 68.0836 65.4653C68.2121 65.5869 68.2846 65.75 68.2859 65.9201Z" fill="#263238"/>
<path d="M58.4199 55.4925L57.5624 50.4601C57.4667 49.9412 57.5881 49.4081 57.902 48.9692C58.2158 48.5302 58.6985 48.2185 59.2519 48.0975C59.8481 47.9719 60.4737 48.0652 60.9972 48.3578C61.5207 48.6503 61.9013 49.1193 62.0591 49.6662L63.5239 54.675" stroke="#263238" stroke-width="0.6" stroke-linecap="round" stroke-linejoin="round"/>
<path d="M78.5956 58.8921C79.8242 58.7782 80.7051 57.6228 80.5632 56.3114C80.4213 55.0001 79.3104 54.0294 78.0819 54.1433C76.8533 54.2573 75.9724 55.4127 76.1143 56.724C76.2562 58.0353 77.3671 59.006 78.5956 58.8921Z" fill="white" stroke="#263238" stroke-width="0.6" stroke-linecap="round" stroke-linejoin="round"/>
<path d="M72.3184 36.4297C72.3184 36.4297 77.2335 42.8324 78.8005 55.8836" stroke="#263238" stroke-width="0.6" stroke-linecap="round" stroke-linejoin="round"/>
<path d="M78.9308 57.3939C79.6016 57.3362 80.0865 56.7017 80.0137 55.9767C79.9409 55.2517 79.3381 54.7108 78.6673 54.7685C77.9964 54.8263 77.5116 55.4608 77.5844 56.1857C77.6572 56.9107 78.26 57.4516 78.9308 57.3939Z" fill="white" stroke="#263238" stroke-width="0.6" stroke-linecap="round" stroke-linejoin="round"/>
<path d="M86.1146 85.9993C85.8131 86.8642 85.566 87.7446 85.3745 88.636C85.3745 89.014 85.2775 90.1433 84.3231 89.8882C83.3686 89.633 83.6544 85.1204 83.7769 84.6195C83.8994 84.1186 86.2218 85.7394 86.2218 85.7394" fill="white"/>
<path d="M86.1146 85.9993C85.8131 86.8642 85.566 87.7446 85.3745 88.636C85.3745 89.014 85.2775 90.1433 84.3231 89.8882C83.3686 89.633 83.6544 85.1204 83.7769 84.6195C83.8994 84.1186 86.2218 85.7394 86.2218 85.7394" stroke="#263238" stroke-width="0.6" stroke-linecap="round" stroke-linejoin="round"/>
<path d="M55.1329 82C55.9819 82.4327 56.9305 82.6709 57.8993 82.6946C59.3999 82.6946 62.1408 82.2221 63.1463 82.4631C64.1517 82.7041 66.7191 85.6999 66.7191 85.6999C66.7191 85.6999 67.4847 86.3945 67.1223 86.7442C66.7599 87.0938 66.0198 87.6892 65.5094 87.3206C64.999 86.9521 62.447 85.0053 62.447 85.0053L56.0108 87.4388L53.3669 86.163L55.1329 82Z" fill="white" stroke="#263238" stroke-width="0.6" stroke-linecap="round" stroke-linejoin="round"/>
<path d="M45.2772 45.5332C45.2772 45.5332 41.0357 46.0057 40.316 47.0358C39.5964 48.0659 27.9745 71.6922 28 72.7365C28.0256 73.7808 51.2387 90.6925 51.2387 90.6925L56.2508 81.861L43.7102 71.0968L49.1511 59.4066" fill="white"/>
<path d="M45.2772 45.5332C45.2772 45.5332 41.0357 46.0057 40.316 47.0358C39.5964 48.0659 27.9745 71.6922 28 72.7365C28.0256 73.7808 51.2387 90.6925 51.2387 90.6925L56.2508 81.861L43.7102 71.0968L49.1511 59.4066" stroke="#263238" stroke-width="0.6" stroke-linecap="round" stroke-linejoin="round"/>
<path d="M53.1016 94.9608L65.3614 95.1923L65.3002 88.1328" stroke="#263238" stroke-width="0.6" stroke-linecap="round" stroke-linejoin="round"/>
<path d="M56.026 87.4395L52.7849 88.5594" stroke="#263238" stroke-width="0.6" stroke-linecap="round" stroke-linejoin="round"/>
<path d="M59.7216 29.3295C59.7216 29.3295 61.115 39.4038 62.0337 40.9064C62.9524 42.409 69.4856 48.429 69.4856 48.429C69.4856 48.429 71.5272 41.4876 71.7569 39.8668C71.9865 38.2461 72.1652 31.763 72.1652 31.763L59.696 28.5215L59.7216 29.3295Z" fill="white" stroke="#263238" stroke-width="0.6" stroke-linecap="round" stroke-linejoin="round"/>
<path d="M59.7216 29.3295C59.7216 29.3295 59.8849 30.5108 60.135 32.1221C61.1123 32.9646 62.2289 33.657 63.4424 34.1729C65.0502 34.8297 69.3376 35.1983 72.0478 34.9053C72.1192 33.2089 72.1652 31.763 72.1652 31.763L59.696 28.5215L59.7216 29.3295Z" fill="#263238" stroke="#263238" stroke-width="0.6" stroke-linecap="round" stroke-linejoin="round"/>
<path d="M56.108 20.5359C56.108 20.5359 54.439 18.9152 53.6121 20.7627C52.7853 22.6103 54.6329 25.3935 55.618 25.5116C56.2025 25.5822 56.7964 25.542 57.3636 25.3935C57.3636 25.3935 58.0628 28.0585 58.7059 28.8666C59.9717 30.3482 61.5935 31.5359 63.4425 32.3349C65.7189 33.2799 73.3392 33.6154 74.3038 32.3349C75.2685 31.0543 75.2123 24.2311 75.197 23.6546C75.1817 23.0781 75.0745 14.8278 75.0745 14.8278C75.0745 14.8278 75.7585 11.9643 74.8295 9.99388C73.9006 8.02345 64.5756 5.26863 62.2328 6.40741C59.8901 7.5462 57.19 9.53081 57.0063 12.0777C56.8226 14.6246 56.9348 18.7923 56.9348 18.7923L56.108 20.5359Z" fill="white" stroke="#263238" stroke-width="0.6" stroke-linecap="round" stroke-linejoin="round"/>
<path d="M69.8886 16.9434C69.8886 16.9434 71.4453 23.5587 71.088 24.3526C70.7308 25.1464 69.613 25.1606 68.2145 24.466C66.816 23.7714 67.5458 22.8452 67.5458 22.8452" stroke="#263238" stroke-width="0.6" stroke-linecap="round" stroke-linejoin="round"/>
<path d="M64.4683 24.582C64.4683 24.582 65.142 26.3162 66.3925 26.4343C67.643 26.5525 70.7819 26.7793 70.7819 26.7793" stroke="#263238" stroke-width="0.6" stroke-linecap="round" stroke-linejoin="round"/>
<path d="M60.0022 17.1742L60.2013 19.9527C60.2013 19.9527 61.3446 20.5339 63.968 20.5339C66.5915 20.5339 67.4541 19.9527 67.4541 19.9527L67.3826 17.1742C67.3826 17.1742 63.575 15.0904 60.0022 17.1742Z" stroke="#263238" stroke-width="0.6" stroke-linecap="round" stroke-linejoin="round"/>
<path d="M69.8989 17.1718L70.8483 20.0683C70.8483 20.0683 71.2362 20.5409 73.8647 20.5409C76.4933 20.5409 77.3559 19.9597 77.3559 19.9597L77.2793 17.1812C77.2793 17.1812 73.4666 15.0879 69.8989 17.1718Z" stroke="#263238" stroke-width="0.6" stroke-linecap="round" stroke-linejoin="round"/>
<path d="M67.3979 17.1758H69.8989" stroke="#263238" stroke-width="0.6" stroke-linecap="round" stroke-linejoin="round"/>
<path d="M60.0176 17.1758L55.0872 19.8408" stroke="#263238" stroke-width="0.6" stroke-linecap="round" stroke-linejoin="round"/>
<path d="M61.2322 15.786C61.2322 15.786 62.5694 14.3967 65.6012 15.5544" stroke="#263238" stroke-width="0.6" stroke-linecap="round" stroke-linejoin="round"/>
<path d="M70.3584 15.786C70.8086 15.4515 71.3517 15.2417 71.9252 15.1807C72.4986 15.1196 73.079 15.2099 73.5995 15.441" stroke="#263238" stroke-width="0.6" stroke-linecap="round" stroke-linejoin="round"/>
<path d="M64.4277 18.4509C64.4277 18.9612 64.2286 19.396 63.953 19.396C63.6774 19.396 63.4426 18.9801 63.4426 18.4509C63.4426 17.9217 63.6417 17.5059 63.9224 17.5059C64.2031 17.5059 64.4175 17.9359 64.4277 18.4509Z" fill="#263238"/>
<path d="M72.4301 18.3337C72.4301 18.8441 72.2311 19.2788 71.9555 19.2788C71.6799 19.2788 71.4451 18.863 71.4451 18.3337C71.4451 17.8045 71.6441 17.3887 71.9197 17.3887C72.1954 17.3887 72.4148 17.8234 72.4301 18.3337Z" fill="#263238"/>
<path d="M63.8661 7.62555C63.8661 7.62555 65.0706 10.0874 63.5751 10.9852C63.1137 11.2324 62.5899 11.3626 62.0567 11.3626C61.5235 11.3626 60.9998 11.2324 60.5383 10.9852C60.9358 11.4937 61.1579 12.1016 61.1752 12.7291C61.1925 13.3566 61.0043 13.9742 60.6352 14.5008C59.9021 15.6316 59.0471 16.6908 58.0832 17.662C58.0832 17.662 58.3537 20.6531 57.7923 21.0028C57.2308 21.3524 55.6996 20.8279 55.6741 19.949C55.6486 19.0701 55.0361 17.3123 55.0106 16.4334C54.9851 15.5545 54.5461 13.2675 54.5461 13.2675C54.5461 13.2675 50.7079 11.6845 52.7444 9.75192C54.7809 7.81929 59.104 6.23633 59.104 6.23633C59.104 6.23633 59.201 2.72074 61.8296 1.667C64.4581 0.613272 70.1134 -0.969689 70.1593 0.788106C70.2313 1.69275 70.0557 2.59959 69.6489 3.4248C69.6489 3.4248 74.3906 3.24997 77.698 6.25995C81.0054 9.26994 80.8931 12.0626 79.1833 12.0626C77.4734 12.0626 76.9171 12.4122 76.9171 12.4122C76.9171 12.4122 80.1887 14.17 78.5044 15.0489C76.8201 15.9278 75.0847 14.8741 75.0847 14.8741C75.0847 14.8741 75.8095 13.6455 73.676 12.0389C71.5425 10.4324 63.8661 7.62555 63.8661 7.62555Z" fill="#263238" stroke="#263238" stroke-width="0.6" stroke-linecap="round" stroke-linejoin="round"/>
</g>
<path d="M11.8889 90.6738H106.086V90.6738H11.8889V90.6738Z" stroke="#263238" stroke-width="0.7" stroke-linecap="round" stroke-linejoin="round"/>
<defs>
<clipPath id="clip0_6977_112227">
<rect width="112" height="91" fill="white" transform="translate(3)"/>
</clipPath>
</defs>
</svg>
