<svg width="140" height="110" viewBox="0 0 140 110" fill="none" xmlns="http://www.w3.org/2000/svg">
<path d="M59.5 102C86.8381 102 109 80.9574 109 55C109 29.0426 86.8381 8 59.5 8C32.1619 8 10 29.0426 10 55C10 80.9574 32.1619 102 59.5 102Z" fill="#87BEFF"/>
<path d="M126.871 56.8564H81.803C81.0918 56.8559 80.4043 57.0966 79.8664 57.5346C79.3285 57.9725 78.9763 58.5783 78.8744 59.2409L72.1328 102.634H125.726L129.818 59.8809C129.854 59.4963 129.804 59.1091 129.672 58.7436C129.54 58.3782 129.329 58.0426 129.052 57.7582C128.775 57.4738 128.438 57.2467 128.062 57.0915C127.687 56.9363 127.281 56.8562 126.871 56.8564Z" fill="#313131" stroke="#313131" stroke-width="0.8" stroke-linecap="round" stroke-linejoin="round"/>
<path d="M65.843 49.7718C65.843 49.7718 53.6494 55.4699 49.4638 57.0435C45.2782 58.6171 44.2492 59.3227 43.8768 60.287C43.5043 61.2513 27.2182 85.3457 25.3606 87.5373C23.5029 89.7289 19.4942 94.4583 20.0529 97.6975C20.6116 100.937 25.0812 103.746 29.3646 103.659C33.6479 103.571 36.3483 102.782 36.8139 101.642C37.2795 100.503 49.1006 80.6031 49.1006 80.6031L52.8253 102.769H100.385C100.385 102.769 104.109 72.4548 104.109 67.9839C104.109 63.5131 105.04 58.2576 103.085 57.118C101.129 55.9784 93.033 53.3528 87.0735 51.5119C81.1141 49.671 79.2564 49.3203 77.8643 49.3203C76.4722 49.3203 65.843 49.7718 65.843 49.7718Z" fill="white" stroke="#313131" stroke-width="0.8" stroke-linecap="round" stroke-linejoin="round"/>
<path d="M64.5531 49.9293C64.5531 49.9293 62.9702 52.7346 62.877 55.0138C62.7839 57.2931 62.4115 61.4966 61.0147 64.0388C59.618 66.581 58.5937 67.9837 59.3386 67.7163C60.0835 67.4489 64.3623 62.9868 64.8278 62.0181C65.2934 61.0495 66.0384 62.8948 66.0384 62.8948C66.0384 62.8948 64.6416 66.6599 64.4554 67.1859C64.2691 67.7119 70.317 74.9836 70.317 74.9836C70.317 74.9836 75.5316 71.1308 76.7421 70.2542C77.9526 69.3775 77.5801 68.6762 77.6733 67.5366C77.7664 66.397 78.1388 64.7357 78.786 63.7714C79.4332 62.8071 81.3048 66.5854 82.6038 68.3387C83.9028 70.092 85.211 70.7056 85.0248 69.3907C84.8386 68.0757 84.1868 65.5335 83.7212 61.0626C83.2556 56.5918 83.3487 51.2487 82.1382 49.5831C80.9277 47.9175 74.5771 47.5887 70.4102 47.3082C69.2715 47.1886 68.12 47.3706 67.0852 47.8337C66.0505 48.2967 65.1735 49.0225 64.5531 49.9293Z" fill="white" stroke="#313131" stroke-width="0.8" stroke-linecap="round" stroke-linejoin="round"/>
<path d="M45.7531 64.8555L49.1053 80.6174L44.7754 70.1372" stroke="#313131" stroke-width="0.8" stroke-linecap="round" stroke-linejoin="round"/>
<path d="M65.0188 54.1541C65.0188 54.1541 66.3224 60.9875 67.5329 66.2429C68.1985 69.2343 69.133 72.167 70.3264 75.0093C70.3264 75.0093 76.4721 65.283 78.2413 60.2029C79.2462 57.4 80.0244 54.5296 80.5693 51.6162H65.0188V54.1541Z" stroke="#313131" stroke-width="0.8" stroke-linecap="round" stroke-linejoin="round"/>
<path d="M71.8117 56.5049L68.4641 60.4497L70.792 64.6576L68.5014 69.878C69.0065 71.6141 69.6158 73.3219 70.3264 74.9931C70.3264 74.9931 72.2446 71.96 74.242 68.4184L72.5612 64.7672L74.6098 60.384L71.8117 56.5049Z" fill="#87BEFF" stroke="#313131" stroke-width="0.8" stroke-linecap="round" stroke-linejoin="round"/>
<path d="M65.0188 51.6123V54.1546C65.0188 54.1546 65.9174 58.8709 66.9137 63.4776L71.6254 58.7963L76.5932 63.9773C77.2146 62.7473 77.7633 61.486 78.2367 60.199C79.2415 57.3961 80.0197 54.5257 80.5646 51.6123H65.0188Z" fill="white" stroke="#313131" stroke-width="0.8" stroke-linecap="round" stroke-linejoin="round"/>
<path d="M24.4434 90.132C24.4434 90.132 33.1358 87.1427 37.8242 94.4144" stroke="#313131" stroke-width="0.8" stroke-linecap="round" stroke-linejoin="round"/>
<path d="M37.9779 92.1729C37.9779 92.1729 33.1218 93.2073 30.5285 97.1039C27.9352 101.001 33.2103 101.435 34.6676 101.435C36.1248 101.435 37.503 100.514 37.5821 100.036C37.6613 99.5585 39.5702 94.9386 39.4957 93.8604C39.487 93.4578 39.3314 93.0703 39.055 92.763C38.7786 92.4556 38.3982 92.2473 37.9779 92.1729Z" fill="white" stroke="#313131" stroke-width="0.8" stroke-linecap="round" stroke-linejoin="round"/>
<path d="M35.7431 93.7832C35.7431 93.7832 33.0567 95.9748 33.2383 96.8514C33.4199 97.7281 37.4053 101.103 38.1735 100.617C38.3121 100.55 38.4354 100.459 38.5364 100.347C38.6374 100.236 38.7141 100.107 38.7621 99.968C38.8101 99.8287 38.8285 99.6819 38.8161 99.536C38.8038 99.3901 38.761 99.2479 38.6903 99.1175C38.4714 98.7888 35.7431 93.7832 35.7431 93.7832Z" fill="white" stroke="#313131" stroke-width="0.8" stroke-linecap="round" stroke-linejoin="round"/>
<path d="M33.2521 96.8291C33.2521 96.8291 31.6738 98.4114 32.1906 99.1347C32.7074 99.8579 36.3157 101.703 37.2515 101.147C38.1873 100.59 37.5821 100.02 37.5821 100.02L33.2521 96.8291Z" fill="white" stroke="#313131" stroke-width="0.8" stroke-linecap="round" stroke-linejoin="round"/>
<path d="M42.4987 93.7018L39.2676 93.1758L40.0265 97.5546L43.3275 97.651L42.4987 93.7018Z" fill="white" stroke="#313131" stroke-width="0.8" stroke-linecap="round" stroke-linejoin="round"/>
<path d="M36.6833 86.814L40.4685 99.3017L42.3076 100.875V98.653L38.3036 86.3801C38.2709 86.278 38.2167 86.1832 38.144 86.1014C38.0714 86.0195 37.9819 85.9524 37.8809 85.9041C37.78 85.8557 37.6697 85.8272 37.5566 85.8201C37.4436 85.813 37.3303 85.8276 37.2234 85.8629C37.0226 85.9282 36.8554 86.0624 36.7553 86.2388C36.6551 86.4152 36.6294 86.6206 36.6833 86.814Z" fill="#313131" stroke="#313131" stroke-width="0.8" stroke-linecap="round" stroke-linejoin="round"/>
<path d="M37.9777 92.1702C37.9777 92.1702 35.7429 93.4019 35.9664 94.3355C36.1899 95.2691 38.6016 99.6348 39.4722 99.6917C40.3429 99.7487 40.869 99.2534 40.7433 98.3067C40.6176 97.3599 39.8121 93.9235 39.2674 93.174C38.7227 92.4244 38.6621 92.1264 37.9777 92.1702Z" fill="white" stroke="#313131" stroke-width="0.8" stroke-linecap="round" stroke-linejoin="round"/>
<path d="M42.4986 93.6992C42.4986 93.6992 44.8778 93.9797 45.2921 94.6635C45.7065 95.3473 44.0444 98.0736 43.5136 98.6961C42.9829 99.3185 42.0331 99.2922 42.0051 97.7142C42.0498 96.3652 42.2149 95.0222 42.4986 93.6992Z" fill="white" stroke="#313131" stroke-width="0.8" stroke-linecap="round" stroke-linejoin="round"/>
<path d="M29.6301 98.9717H55.7353C56.4647 98.9728 57.1639 99.2461 57.6796 99.7317C58.1954 100.217 58.4857 100.875 58.4869 101.562C58.4869 102.143 58.2416 102.701 57.8051 103.112C57.3685 103.523 56.7764 103.754 56.159 103.754H29.9932C29.4252 103.754 28.8805 103.541 28.4789 103.163C28.0772 102.785 27.8516 102.272 27.8516 101.737V100.642C27.8516 100.422 27.8976 100.204 27.987 100.002C28.0765 99.7987 28.2076 99.6144 28.3728 99.4593C28.538 99.3041 28.7341 99.1812 28.9498 99.0975C29.1656 99.0139 29.3968 98.9711 29.6301 98.9717Z" fill="white" stroke="#313131" stroke-width="0.8" stroke-linecap="round" stroke-linejoin="round"/>
<path d="M76.0858 93.3227C76.0858 93.3227 69.2929 92.6214 67.6169 92.0954C65.9408 91.5695 63.2404 91.1311 62.3092 91.8324C61.378 92.5338 56.82 97.5306 56.7222 98.1398C56.6244 98.7491 55.6979 100.77 56.1635 101.296C56.5537 101.662 57.0333 101.933 57.5603 102.085C57.5603 102.085 63.6128 103.663 64.26 103.75C64.9072 103.838 71.146 103.575 71.146 103.575L74.4051 102.435L78.9631 102.348C78.9631 102.348 79.0562 103.75 79.1493 100.331C79.2424 96.9125 76.0858 93.3227 76.0858 93.3227Z" fill="white" stroke="#313131" stroke-width="0.8" stroke-linecap="round" stroke-linejoin="round"/>
<path d="M57.5742 102.087C57.5742 102.087 57.6673 100.07 58.1329 99.1937C58.5985 98.317 63.9015 93.8506 63.9015 93.8506" stroke="#313131" stroke-width="0.8" stroke-linecap="round" stroke-linejoin="round"/>
<path d="M59.3247 102.607C59.3247 102.607 60.2559 100.415 60.6283 100.24C61.0008 100.064 65.3726 97.4346 65.3726 97.4346" stroke="#313131" stroke-width="0.8" stroke-linecap="round" stroke-linejoin="round"/>
<path d="M62.5046 103.222C62.5046 103.222 62.6909 102.345 63.1565 102.17C63.622 101.995 67.5329 100.329 67.5329 100.329" stroke="#313131" stroke-width="0.8" stroke-linecap="round" stroke-linejoin="round"/>
<path d="M66.6949 103.658L68.4641 103.22L68.2779 102.431L66.4155 102.869" stroke="#313131" stroke-width="0.8" stroke-linecap="round" stroke-linejoin="round"/>
<path d="M97.405 65.1047C97.405 65.1047 92.4744 74.831 92.7491 78.2543C93.0238 81.6776 94.2437 87.3625 94.2437 87.3625C94.2437 87.3625 86.4265 90.2511 83.7261 91.3074C81.0258 92.3638 76.0859 93.3237 76.0859 93.3237L78.5954 102.612L78.2276 103.576H105.306C105.306 103.576 107.354 103.225 107.727 102.787C108.099 102.349 108.472 102.173 108.658 100.771C108.844 99.3681 110.055 87.1039 109.775 83.6763C109.496 80.2486 105.678 62.4748 105.213 60.6339C104.747 58.793 103.914 57.5657 103.076 57.1274C102.238 56.689 98.6062 56.3428 98.6062 56.3428" fill="white"/>
<path d="M97.405 65.1047C97.405 65.1047 92.4744 74.831 92.7491 78.2543C93.0238 81.6776 94.2437 87.3625 94.2437 87.3625C94.2437 87.3625 86.4265 90.2511 83.7261 91.3074C81.0258 92.3638 76.0859 93.3237 76.0859 93.3237L78.5954 102.612L78.2276 103.576H105.306C105.306 103.576 107.354 103.225 107.727 102.787C108.099 102.349 108.472 102.173 108.658 100.771C108.844 99.3681 110.055 87.1039 109.775 83.6763C109.496 80.2486 105.678 62.4748 105.213 60.6339C104.747 58.793 103.914 57.5657 103.076 57.1274C102.238 56.689 98.6062 56.3428 98.6062 56.3428" stroke="#313131" stroke-width="0.8" stroke-linecap="round" stroke-linejoin="round"/>
<path d="M94.8953 87.5361C94.8953 87.5361 102.061 87.8868 105.604 89.9863" stroke="#313131" stroke-width="0.8" stroke-linecap="round" stroke-linejoin="round"/>
<path d="M96.1943 86.6602C96.1943 86.6602 101.223 86.3973 103.923 87.1862" stroke="#313131" stroke-width="0.8" stroke-linecap="round" stroke-linejoin="round"/>
<path d="M94.8019 64.833C94.8019 64.833 92.2878 70.3558 92.1946 72.4597C92.1015 74.5637 91.9153 75.791 91.9153 75.791" stroke="#313131" stroke-width="0.8" stroke-linecap="round" stroke-linejoin="round"/>
<path d="M83.3535 50.2119C83.3535 50.2119 89.029 57.8211 84.4663 79.0401" stroke="#313131" stroke-width="0.8" stroke-linecap="round" stroke-linejoin="round"/>
<path d="M87.1666 79.6533C87.1666 79.1332 87.0027 78.6247 86.6958 78.1923C86.3888 77.7598 85.9526 77.4227 85.4421 77.2236C84.9317 77.0246 84.37 76.9725 83.8281 77.074C83.2862 77.1754 82.7885 77.4259 82.3978 77.7937C82.0071 78.1615 81.7411 78.6301 81.6333 79.1403C81.5255 79.6504 81.5808 80.1792 81.7922 80.6598C82.0037 81.1403 82.3617 81.5511 82.8211 81.84C83.2805 82.129 83.8206 82.2833 84.3731 82.2833C85.114 82.2833 85.8245 82.0062 86.3484 81.513C86.8723 81.0198 87.1666 80.3508 87.1666 79.6533Z" fill="white" stroke="#313131" stroke-width="0.8" stroke-linecap="round" stroke-linejoin="round"/>
<path d="M63.9806 50.999C63.9806 50.999 61.0986 52.7523 60.6331 59.8487" stroke="#313131" stroke-width="0.8" stroke-linecap="round" stroke-linejoin="round"/>
<path d="M64.6371 70.5986C63.9341 75.3851 62.975 80.5265 62.7748 81.653C62.3092 84.0638 59.2689 84.9053 57.3135 84.1164" stroke="#313131" stroke-width="0.8" stroke-linecap="round" stroke-linejoin="round"/>
<path d="M57.3462 70.9142C56.7084 68.2317 56.3173 65.9042 56.457 64.8391C57.1088 59.9343 60.6472 59.8467 60.6472 59.8467C60.6472 59.8467 64.8374 60.3727 65.1121 64.5805C65.1411 66.5954 64.9853 68.6089 64.6466 70.5986" stroke="#313131" stroke-width="0.8" stroke-linecap="round" stroke-linejoin="round"/>
<path d="M65.2052 83.7665C65.2052 83.7665 63.2498 84.8185 61.9461 84.1172C61.0662 83.6438 58.6871 76.508 57.3462 70.915" stroke="#313131" stroke-width="0.8" stroke-linecap="round" stroke-linejoin="round"/>
<path d="M65.8864 82.8176L65.1168 83.1299C64.7461 83.2804 64.5751 83.6853 64.7349 84.0343L64.7441 84.0544C64.9039 84.4034 65.334 84.5644 65.7048 84.4139L66.4743 84.1016C66.8451 83.9512 67.016 83.5463 66.8562 83.1972L66.847 83.1771C66.6872 82.8281 66.2571 82.6671 65.8864 82.8176Z" stroke="#313131" stroke-width="0.8" stroke-linecap="round" stroke-linejoin="round"/>
<path d="M57.555 83.2918L56.8366 82.8856C56.4905 82.6899 56.0415 82.7954 55.8336 83.1212L55.8216 83.14C55.6137 83.4658 55.7258 83.8885 56.0719 84.0842L56.7903 84.4905C57.1364 84.6861 57.5854 84.5807 57.7933 84.2548L57.8053 84.2361C58.0131 83.9103 57.9011 83.4875 57.555 83.2918Z" stroke="#313131" stroke-width="0.8" stroke-linecap="round" stroke-linejoin="round"/>
<path d="M60.647 29.7966C60.647 29.7966 59.1572 33.1234 59.4365 35.2273C59.7159 37.3313 62.6956 39.6105 62.6956 39.6105C62.6956 39.6105 63.7199 30.2349 63.7199 29.8842C63.7199 29.5336 61.8529 28.7446 60.647 29.7966Z" fill="#313131" stroke="#313131" stroke-width="0.8" stroke-linecap="round" stroke-linejoin="round"/>
<path d="M59.5762 41.7129L61.5549 40.4111" stroke="#313131" stroke-width="0.8" stroke-linecap="round" stroke-linejoin="round"/>
<path d="M61.7599 30.4106C61.7599 30.4106 61.3874 39.6986 61.5736 41.4475C61.7599 43.1964 62.5048 48.8068 63.1566 50.5601C63.8084 52.3134 65.9501 57.9195 67.6262 58.5331C69.3023 59.1468 72.6498 59.5851 73.7672 58.8838C74.8846 58.1825 78.9771 55.5569 80.0945 53.0147C80.757 51.5323 81.1958 49.9699 81.3981 48.3729C82.3273 47.9062 83.1297 47.2444 83.7434 46.4386C84.357 45.6329 84.7653 44.705 84.9366 43.7267C85.4953 40.3955 84.0054 39.4356 84.0054 39.4356L84.0985 33.6498C84.0985 33.6498 83.0742 29.6217 80.3739 27.4301C77.6735 25.2385 74.5122 25.0632 71.2531 26.7288C67.994 28.3944 61.7599 30.4106 61.7599 30.4106Z" fill="white" stroke="#313131" stroke-width="0.8" stroke-linecap="round" stroke-linejoin="round"/>
<path d="M79.2563 29.8853C79.2563 29.8853 79.3494 27.6061 77.0262 28.3951C74.7029 29.184 74.1396 30.6743 70.6942 31.9893C67.2489 33.3042 62.6909 31.814 61.1125 30.9373C59.5342 30.0607 58.4122 28.8334 60.5539 26.5541C62.6955 24.2749 67.7192 22 73.1246 22C78.53 22 82.7109 26.2035 84.4801 27.9567C86.2493 29.71 86.5287 31.9016 85.8769 33.4752C85.2251 35.0487 84.0146 39.4363 84.0146 39.4363C84.0146 39.4363 83.2696 39.3486 82.9903 40.3962C82.7109 41.4438 82.804 42.5878 81.5935 42.6755C80.383 42.7631 80.4761 39.6993 80.4761 39.6993C80.4761 39.6993 77.501 38.8227 77.1286 36.8064C76.7561 34.7901 79.2563 31.8139 79.2563 29.8853Z" fill="#313131" stroke="#313131" stroke-width="0.8" stroke-linecap="round" stroke-linejoin="round"/>
<path d="M68.1709 43.1447L59.5623 41.7158L60.0604 45.3495C60.0911 45.5754 60.1982 45.7861 60.3659 45.9503C60.5336 46.1145 60.753 46.2235 60.9916 46.2612L66.2247 47.037C66.5125 47.0807 66.807 47.0174 67.0459 46.8603C67.2849 46.7032 67.4496 46.4648 67.5051 46.1954L68.1709 43.1447Z" stroke="#313131" stroke-width="0.8" stroke-linecap="round" stroke-linejoin="round"/>
<path d="M69.74 43.2981L79.7221 43.0264L78.7444 46.4277C78.6602 46.6568 78.4995 46.854 78.2863 46.9899C78.0731 47.1258 77.8189 47.1931 77.5618 47.1816L71.5092 47.2605C71.1955 47.2809 70.8845 47.1942 70.6331 47.0163C70.3817 46.8384 70.2068 46.5812 70.1404 46.2918L69.74 43.2981Z" stroke="#313131" stroke-width="0.8" stroke-linecap="round" stroke-linejoin="round"/>
<path d="M68.1848 43.1445L69.7389 43.2979" stroke="#313131" stroke-width="0.8" stroke-linecap="round" stroke-linejoin="round"/>
<path d="M79.7219 43.0254L82.981 40.3955" stroke="#313131" stroke-width="0.8" stroke-linecap="round" stroke-linejoin="round"/>
<path d="M71.0669 42.239C71.0669 42.239 73.8604 40.2271 76.4677 41.45" stroke="#313131" stroke-width="0.8" stroke-linecap="round" stroke-linejoin="round"/>
<path d="M66.8813 41.7996C66.8813 41.7996 64.7396 39.608 62.3186 41.0983" stroke="#313131" stroke-width="0.8" stroke-linecap="round" stroke-linejoin="round"/>
<path d="M67.4398 49.4209C67.4398 49.4209 66.9743 51.2618 67.4398 51.6125C68.2324 52.0244 69.1473 52.1785 70.0424 52.0508" stroke="#313131" stroke-width="0.8" stroke-linecap="round" stroke-linejoin="round"/>
<path d="M66.043 52.999C66.043 52.999 67.9053 54.314 69.6745 54.4016C71.4437 54.4893 73.4876 53.262 73.4876 53.262" stroke="#313131" stroke-width="0.8" stroke-linecap="round" stroke-linejoin="round"/>
<path d="M72.9292 44.0769C72.9292 44.0769 74.0466 45.3042 75.9089 43.9893" stroke="#313131" stroke-width="0.8" stroke-linecap="round" stroke-linejoin="round"/>
<path d="M63.7617 43.5391C63.7617 43.5391 64.6929 44.8978 66.7228 43.8327" stroke="#313131" stroke-width="0.8" stroke-linecap="round" stroke-linejoin="round"/>
</svg>
