<svg width="26" height="26" viewBox="0 0 26 26" fill="none" xmlns="http://www.w3.org/2000/svg">
<path d="M20.9301 21.0796H21.0801V20.9296V19.4996C21.0801 19.3385 20.9849 19.1822 20.859 19.0429C20.7288 18.8987 20.5437 18.7485 20.3173 18.5973C19.8635 18.2944 19.2235 17.9745 18.467 17.6827C16.9538 17.099 14.9528 16.6196 13.0001 16.6196C11.0474 16.6196 9.04642 17.099 7.53324 17.6827C6.7767 17.9745 6.13669 18.2944 5.68292 18.5973C5.45648 18.7485 5.27139 18.8987 5.14117 19.0429C5.01529 19.1822 4.9201 19.3385 4.9201 19.4996V20.9296V21.0796H5.0701H20.9301ZM14.1022 5.13884C13.7528 4.9941 13.3783 4.91961 13.0001 4.91961C12.2363 4.91961 11.5037 5.22304 10.9636 5.76314C10.4235 6.30325 10.1201 7.03579 10.1201 7.79961C10.1201 8.56343 10.4235 9.29597 10.9636 9.83608C11.5037 10.3762 12.2363 10.6796 13.0001 10.6796C13.3783 10.6796 13.7528 10.6051 14.1022 10.4604C14.4516 10.3156 14.7691 10.1035 15.0366 9.83608C15.304 9.56865 15.5161 9.25116 15.6609 8.90174C15.8056 8.55232 15.8801 8.17782 15.8801 7.79961C15.8801 7.4214 15.8056 7.0469 15.6609 6.69748C15.5161 6.34806 15.304 6.03057 15.0366 5.76314C14.7691 5.49571 14.4516 5.28357 14.1022 5.13884ZM7.9501 7.79961C7.9501 5.00945 10.2099 2.74961 13.0001 2.74961C15.7903 2.74961 18.0501 5.00945 18.0501 7.79961C18.0501 10.5898 15.7903 12.8496 13.0001 12.8496C10.2099 12.8496 7.9501 10.5898 7.9501 7.79961ZM2.7501 19.4996C2.7501 18.6902 3.15437 17.9701 3.83872 17.3385C4.52409 16.7059 5.48035 16.1723 6.55425 15.7421C8.70231 14.8816 11.2833 14.4496 13.0001 14.4496C14.7168 14.4496 17.2979 14.8816 19.4459 15.7421C20.5199 16.1723 21.4761 16.7059 22.1615 17.3385C22.8458 17.9701 23.2501 18.6902 23.2501 19.4996V22.0996C23.2501 22.7318 22.7323 23.2496 22.1001 23.2496H3.9001C3.26794 23.2496 2.7501 22.7318 2.7501 22.0996V19.4996Z" fill="currentColor" stroke="#F3F5FF" stroke-width="0.3"/>
</svg>
