<svg width="27" height="27" viewBox="0 0 27 27" fill="none" xmlns="http://www.w3.org/2000/svg">
<path d="M19.6668 1.79102V3.41602H21.2918V8.29102C21.2918 9.15297 20.9493 9.97962 20.3399 10.5891C19.7304 11.1986 18.9037 11.541 18.0418 11.541C17.1798 11.541 16.3532 11.1986 15.7437 10.5891C15.1342 9.97962 14.7918 9.15297 14.7918 8.29102V3.41602H16.4168V1.79102H13.1668V8.29102C13.1687 9.44201 13.5776 10.5552 14.321 11.434C15.0644 12.3127 16.0945 12.9003 17.2293 13.0929V18.041C17.2293 19.3339 16.7156 20.5739 15.8014 21.4882C14.8872 22.4024 13.6472 22.916 12.3543 22.916C11.0613 22.916 9.82135 22.4024 8.90711 21.4882C7.99287 20.5739 7.47926 19.3339 7.47926 18.041V13.0506C8.24517 12.8529 8.91266 12.3826 9.35662 11.7279C9.80058 11.0732 9.99052 10.2791 9.89085 9.49433C9.79118 8.7096 9.40873 7.98817 8.81519 7.46525C8.22166 6.94234 7.45778 6.65384 6.66676 6.65384C5.87573 6.65384 5.11185 6.94234 4.51832 7.46525C3.92478 7.98817 3.54233 8.7096 3.44266 9.49433C3.34299 10.2791 3.53293 11.0732 3.97689 11.7279C4.42085 12.3826 5.08835 12.8529 5.85426 13.0506V18.041C5.85426 19.7649 6.53907 21.4182 7.75806 22.6372C8.97705 23.8562 10.6303 24.541 12.3543 24.541C14.0782 24.541 15.7315 23.8562 16.9504 22.6372C18.1694 21.4182 18.8543 19.7649 18.8543 18.041V13.0929C19.989 12.9003 21.0191 12.3127 21.7625 11.434C22.506 10.5552 22.9148 9.44201 22.9168 8.29102V1.79102H19.6668ZM5.04176 9.91602C5.04176 9.59462 5.13706 9.28044 5.31562 9.01321C5.49417 8.74598 5.74796 8.5377 6.04489 8.41471C6.34182 8.29172 6.66856 8.25954 6.98378 8.32224C7.299 8.38494 7.58854 8.53971 7.8158 8.76697C8.04306 8.99423 8.19783 9.28377 8.26053 9.59899C8.32323 9.91421 8.29105 10.2409 8.16806 10.5379C8.04507 10.8348 7.83679 11.0886 7.56956 11.2672C7.30233 11.4457 6.98815 11.541 6.66676 11.541C6.23591 11.5406 5.82284 11.3692 5.51818 11.0646C5.21353 10.7599 5.04219 10.3469 5.04176 9.91602Z" fill="currentColor"/>
</svg>
