<svg width="140" height="110" viewBox="0 0 140 110" fill="none" xmlns="http://www.w3.org/2000/svg">
<path d="M74.5 106C104.047 106 128 83.3904 128 55.5C128 27.6096 104.047 5 74.5 5C44.9528 5 21 27.6096 21 55.5C21 83.3904 44.9528 106 74.5 106Z" fill="#87BEFF"/>
<path d="M55.8654 23.3221C55.8654 23.3221 50.4338 19.7789 44.3097 19.9295C38.1856 20.0801 35.8863 26.232 35.5604 28.0081C35.2345 29.7841 35.7278 30.7541 32.0977 30.7541C28.4676 30.7541 20.868 30.1075 17.8987 33.9873C14.9294 37.8672 14.5945 42.2254 17.2379 44.9714C19.8812 47.7174 20.8589 48.8469 20.8589 48.8469C20.8589 48.8469 18.0526 51.4334 19.3743 54.9855C20.696 58.5377 25.4848 60.1543 28.6215 60.1543C31.7583 60.1543 36.5426 55.7916 37.8643 53.2095C39.1859 50.6273 42.9835 51.4379 45.9528 47.3941C48.922 43.3504 47.4419 38.3455 46.944 35.5995C46.4461 32.8535 47.1115 27.1843 51.072 25.7493C55.0326 24.3142 55.6934 24.2921 55.6934 24.2921L55.8654 23.3221Z" fill="#313131" stroke="#313131" stroke-width="0.8" stroke-linecap="round" stroke-linejoin="round"/>
<path d="M9.53223 102.962L21.3605 81.6425C21.7506 77.9903 22.5205 74.3893 23.6577 70.8988C25.6306 64.6184 27.9323 54.5363 30.725 51.0653C33.5176 47.5943 42.8866 44.4541 42.8866 44.4541C42.8866 44.4541 51.9222 48.4235 54.386 50.2406C56.8499 52.0576 60.9578 55.1978 62.2686 58.0072C63.5793 60.8166 64.7369 67.5909 66.8719 70.0695C69.007 72.5482 73.7725 77.5099 73.6059 82.1364C73.4392 86.7629 72.6194 88.5799 72.6194 89.7399C72.6194 90.8999 70.3222 89.4952 66.0522 89.9891C61.7821 90.4831 58.7417 91.8968 58.3949 92.3907C58.048 92.8846 49.7826 106.27 49.7826 106.27" fill="white"/>
<path d="M9.53223 102.962L21.3605 81.6425C21.7506 77.9903 22.5205 74.3893 23.6577 70.8988C25.6306 64.6184 27.9323 54.5363 30.725 51.0653C33.5176 47.5943 42.8866 44.4541 42.8866 44.4541C42.8866 44.4541 51.9222 48.4235 54.386 50.2406C56.8499 52.0576 60.9578 55.1978 62.2686 58.0072C63.5793 60.8166 64.7369 67.5909 66.8719 70.0695C69.007 72.5482 73.7725 77.5099 73.6059 82.1364C73.4392 86.7629 72.6194 88.5799 72.6194 89.7399C72.6194 90.8999 70.3222 89.4952 66.0522 89.9891C61.7821 90.4831 58.7417 91.8968 58.3949 92.3907C58.048 92.8846 49.7826 106.27 49.7826 106.27" stroke="#313131" stroke-width="0.8" stroke-linecap="round" stroke-linejoin="round"/>
<path d="M62.9291 66.04C62.9291 66.04 64.4237 75.0125 64.7227 77.2524C65.0216 79.4922 60.8407 88.6272 59.8088 89.589" stroke="#313131" stroke-width="0.8" stroke-linecap="round" stroke-linejoin="round"/>
<path d="M58.9941 66.04C58.9941 66.04 58.4721 73.7837 59.2515 77.5742C60.0309 81.3648 61.5969 86.1583 60.2955 87.6266" stroke="#313131" stroke-width="0.8" stroke-linecap="round" stroke-linejoin="round"/>
<path d="M64.7378 79.7778C64.7378 79.7778 67.3167 76.8823 70.6527 78.1257" stroke="#313131" stroke-width="0.8" stroke-linecap="round" stroke-linejoin="round"/>
<path d="M65.7236 77.8142C65.7236 77.8142 67.7731 76.833 69.6669 76.833" stroke="#313131" stroke-width="0.8" stroke-linecap="round" stroke-linejoin="round"/>
<path d="M59.2888 52.605L60.8582 55.5959L62.7662 64.0634L59.9805 59.4154L58.5924 65.0604L56.8513 54.7674C56.8513 54.7674 57.5525 51.2803 59.2888 52.605Z" fill="white" stroke="#313131" stroke-width="0.8" stroke-linecap="round" stroke-linejoin="round"/>
<path d="M53.0199 37.3555C53.0199 37.3555 50.9668 39.1748 49.4292 39.8434C47.8917 40.512 46.0073 41.1715 46.0073 41.1715L55.4106 59.4191L59.1606 65.059C59.1606 65.059 58.9872 60.2469 58.9872 58.5868C58.9653 57.4187 58.8509 56.2539 58.645 55.1028L63.0888 49.795C63.0888 49.795 64.4576 37.5147 63.2622 35.5316C62.0669 33.5486 55.2418 35.1996 53.0199 37.3555Z" fill="white" stroke="#313131" stroke-width="0.8" stroke-linecap="round" stroke-linejoin="round"/>
<path d="M62.7663 45.3218L59.9436 42.4912C59.9436 42.4912 59.3065 43.1695 58.8549 47.5645C58.7051 49.5505 59.0855 51.5416 59.9476 53.2845L62.367 49.9158C62.367 49.9158 62.6009 47.872 62.7663 45.3218Z" fill="#313131" stroke="#313131" stroke-width="0.8" stroke-linecap="round" stroke-linejoin="round"/>
<path d="M83.4684 32.2986C83.4684 32.2986 82.2957 38.0224 81.295 39.8726C80.2943 41.7229 78.8817 42.7391 78.7639 43.5594C78.4243 46.3986 78.4334 47.5971 77.5958 48.7774C76.7581 49.9577 72.0763 52.8196 69.2328 53.4896C66.3893 54.1595 64.7049 54.6699 63.8764 53.8268C63.0478 52.9837 60.0322 48.6088 60.0322 46.7586C60.0322 44.9083 59.5296 44.4025 60.0322 43.2222C60.5348 42.0419 60.5348 39.0113 60.5348 39.0113C60.5348 39.0113 60.5348 37.4983 62.5406 34.9737C64.5465 32.449 68.3952 31.7836 71.2386 31.7836C74.0821 31.7836 74.4081 29.7602 77.4282 28.9217C80.4483 28.0832 82.6307 30.6124 83.4684 32.2986Z" fill="white" stroke="#313131" stroke-width="0.8" stroke-linecap="round" stroke-linejoin="round"/>
<path d="M76.3792 42.7558C76.167 43.2759 75.8556 43.5822 75.6875 43.4371C75.5194 43.292 75.5552 42.7438 75.7702 42.2278C75.9851 41.7118 76.2938 41.4014 76.4619 41.5465C76.63 41.6916 76.5941 42.2318 76.3792 42.7558Z" fill="#313131"/>
<path d="M75.5818 39.6959C75.5818 39.6959 77.5298 39.0306 78.5392 40.53" stroke="#313131" stroke-width="0.8" stroke-linecap="round" stroke-linejoin="round"/>
<path d="M77.705 48.9227C78.1293 48.2071 78.4123 47.4204 78.5393 46.6032C77.2308 45.9056 74.3494 44.2616 72.8176 42.5197C70.7979 40.2225 66.7585 34.6416 66.7585 34.6416L66.0974 35.4636L69.4666 40.8801C69.4666 40.8801 65.5913 43.9905 62.8969 43.9905C60.7997 43.9905 60.3347 43.1996 60.2344 42.8441C60.1861 43.0669 60.119 43.2853 60.0338 43.4973C59.5277 44.6481 60.0338 45.1369 60.0338 46.9454C60.0338 48.7538 63.0656 53.0195 63.9045 53.8371C64.7433 54.6547 66.4348 54.1659 69.2979 53.5083C72.1611 52.8506 76.8615 50.0735 77.705 48.9227Z" fill="#87BEFF" stroke="#313131" stroke-width="0.8" stroke-linecap="round" stroke-linejoin="round"/>
<path d="M65.2108 36.6265C66.6869 35.7609 68.3889 35.3529 70.0992 35.4548C72.9656 35.6229 76.3387 36.7946 77.1831 35.2868C78.0275 33.7791 78.1964 30.9225 80.725 31.5946C83.2536 32.2668 83.5914 33.7745 83.5914 33.7745C83.5914 33.7745 88.8175 33.6065 89.3242 30.7545C89.8308 27.9024 86.9644 23.3746 85.1067 23.034C83.2491 22.6934 81.5648 22.3619 81.5648 22.3619C81.5648 22.3619 75.1748 15.8177 67.5706 16.0039C59.9664 16.1901 56.6162 19.1829 54.7585 25.5681C52.9008 31.9534 53.7452 34.2922 52.2253 36.4676C50.7054 38.6429 49.8656 40.8319 53.5946 40.4958C57.3237 40.1598 59.8341 37.8118 61.6872 36.9717C62.7909 36.4716 64.0303 36.3502 65.2108 36.6265Z" fill="#313131" stroke="#313131" stroke-width="0.8" stroke-linecap="round" stroke-linejoin="round"/>
<path d="M65.6772 37.7742C65.6772 37.7742 67.8723 35.2035 65.8606 32.4611C63.8488 29.7187 57.9871 35.0318 58.9235 37.9459C59.86 40.86 62.2186 40.5166 62.2186 40.5166" fill="white"/>
<path d="M65.6772 37.7742C65.6772 37.7742 67.8723 35.2035 65.8606 32.4611C63.8488 29.7187 57.9871 35.0318 58.9235 37.9459C59.86 40.86 62.2186 40.5166 62.2186 40.5166" stroke="#313131" stroke-width="0.8" stroke-linecap="round" stroke-linejoin="round"/>
<path d="M47.7086 39.5488L57.837 59.5701L54.3501 65.0602L42.064 44.3925L47.7086 39.5488Z" fill="white" stroke="#313131" stroke-width="0.8" stroke-linecap="round" stroke-linejoin="round"/>
<path d="M59.8104 90.9357C59.8104 90.9357 59.5824 87.0752 64.5599 86.6905C69.5374 86.3058 73.3968 88.4239 73.607 91.6874C73.8172 94.9509 63.652 92.846 62.5206 92.846C61.3891 92.846 59.8104 90.9357 59.8104 90.9357Z" fill="white" stroke="#313131" stroke-width="0.8" stroke-linecap="round" stroke-linejoin="round"/>
<path d="M116 101.364H48.9648V105.289H115.837" fill="white"/>
<path d="M116 101.364H48.9648V105.289H115.837" stroke="#313131" stroke-width="0.8" stroke-linecap="round" stroke-linejoin="round"/>
<path d="M92.011 61.1348L74.5959 68.3962V95.477H81.1683V70.0485L93.3264 63.2806L92.011 61.1348Z" fill="white" stroke="#313131" stroke-width="0.8" stroke-linecap="round" stroke-linejoin="round"/>
<path d="M101.213 86.7712C101.099 86.7116 101.003 86.6164 100.936 86.4969C100.868 86.3773 100.832 86.2385 100.832 86.0967C100.832 85.9549 100.868 85.816 100.936 85.6965C101.003 85.577 101.099 85.4818 101.213 85.4221C101.213 85.2263 101.144 85.0384 101.022 84.8999C100.899 84.7614 100.733 84.6836 100.56 84.6836H94.9649C94.9773 85.4458 94.7455 86.1874 94.3123 86.7712C94.3125 86.9133 94.3486 87.0523 94.4165 87.1719C94.4843 87.2914 94.5811 87.3865 94.6952 87.4457C94.5807 87.5032 94.4836 87.5971 94.4156 87.716C94.3476 87.8349 94.3117 87.9737 94.3123 88.1154C94.426 88.175 94.5222 88.2702 94.5897 88.3897C94.6571 88.5092 94.693 88.6481 94.693 88.7899C94.693 88.9317 94.6571 89.0706 94.5897 89.1901C94.5222 89.3096 94.426 89.4048 94.3123 89.4644C94.3125 89.6065 94.3486 89.7456 94.4165 89.8651C94.4843 89.9846 94.5811 90.0797 94.6952 90.139C94.5807 90.1964 94.4836 90.2903 94.4156 90.4092C94.3476 90.5282 94.3117 90.6669 94.3123 90.8086C94.3117 90.906 94.3282 91.0025 94.3607 91.0927C94.3932 91.1829 94.4412 91.2649 94.5019 91.334C94.5625 91.4031 94.6347 91.4579 94.7141 91.4954C94.7936 91.5328 94.8788 91.552 94.9649 91.552H100.56C100.646 91.552 100.732 91.5328 100.811 91.4954C100.891 91.4579 100.963 91.4031 101.023 91.334C101.084 91.2649 101.132 91.1829 101.165 91.0927C101.197 91.0025 101.214 90.906 101.213 90.8086C101.214 90.6669 101.178 90.5282 101.11 90.4092C101.042 90.2903 100.944 90.1964 100.83 90.139C100.716 89.7956 100.691 89.4223 100.759 89.0636C100.827 88.7049 100.985 88.3757 101.213 88.1154C101.214 87.9737 101.178 87.8349 101.11 87.716C101.042 87.5971 100.944 87.5032 100.83 87.4457C100.944 87.3865 101.041 87.2914 101.109 87.1719C101.177 87.0523 101.213 86.9133 101.213 86.7712Z" fill="#313131" stroke="#313131" stroke-width="0.8" stroke-linecap="round" stroke-linejoin="round"/>
<path d="M107.128 91.5518H74.5959V97.439H107.128V91.5518Z" fill="white" stroke="#313131" stroke-width="0.8" stroke-linecap="round" stroke-linejoin="round"/>
<path d="M107.128 94.4961H74.5959V97.4397H107.128V94.4961Z" fill="#313131" stroke="#313131" stroke-width="0.8" stroke-linecap="round" stroke-linejoin="round"/>
<path d="M80.5109 97.4395H76.5676V101.364H80.5109V97.4395Z" fill="#313131" stroke="#313131" stroke-width="0.8" stroke-linecap="round" stroke-linejoin="round"/>
<path d="M92.3405 97.4395H88.3972V101.364H92.3405V97.4395Z" fill="#313131" stroke="#313131" stroke-width="0.8" stroke-linecap="round" stroke-linejoin="round"/>
<path d="M104.17 97.4395H100.227V101.364H104.17V97.4395Z" fill="#313131" stroke="#313131" stroke-width="0.8" stroke-linecap="round" stroke-linejoin="round"/>
<path d="M107.128 78.7959H78.5391V79.7771H107.128V78.7959Z" fill="white" stroke="#313131" stroke-width="0.8" stroke-linecap="round" stroke-linejoin="round"/>
<path d="M106.142 79.7783H81.4966V82.7219H106.142V79.7783Z" fill="#313131" stroke="#313131" stroke-width="0.8" stroke-linecap="round" stroke-linejoin="round"/>
<path d="M80.2141 42.1243L77.5325 45.0371L94.3655 60.3897L97.0471 57.4769L80.2141 42.1243Z" fill="#313131" stroke="#313131" stroke-width="0.8" stroke-linecap="round" stroke-linejoin="round"/>
<path d="M97.2697 66.04H93.3264V73.8897H97.2697V66.04Z" fill="#313131" stroke="#313131" stroke-width="0.8" stroke-linecap="round" stroke-linejoin="round"/>
<path d="M96.2839 73.8906H94.3123V74.8718H96.2839V73.8906Z" fill="#313131" stroke="#313131" stroke-width="0.8" stroke-linecap="round" stroke-linejoin="round"/>
<path d="M99.8025 63.17L96.9248 64.4297L100.188 71.8155L103.066 70.5558L99.8025 63.17Z" fill="#313131" stroke="#313131" stroke-width="0.8" stroke-linecap="round" stroke-linejoin="round"/>
<path d="M102.794 70.7935L100.56 71.7715L101.106 73.0073L103.34 72.0293L102.794 70.7935Z" fill="#313131" stroke="#313131" stroke-width="0.8" stroke-linecap="round" stroke-linejoin="round"/>
<path d="M94.7449 55.2471L91.3547 58.562V68.0028L102.199 65.3508V59.057L94.7449 55.2471Z" fill="white" stroke="#313131" stroke-width="0.8" stroke-linecap="round" stroke-linejoin="round"/>
<path d="M102.199 62.1152L91.3547 65.268V68.0025L102.199 64.949V62.1152Z" fill="#313131" stroke="#313131" stroke-width="0.8" stroke-linecap="round" stroke-linejoin="round"/>
<path d="M73.6275 88.927C73.6275 88.927 78.6388 85.7583 79.642 84.6515C80.6452 83.5446 84.319 79.1128 85.3221 78.9522C86.3253 78.7916 89.8342 78.7959 90.503 78.7959C91.1718 78.7959 93.3431 80.6928 93.8424 81.0096C94.3417 81.3265 94.5112 82.7459 94.0119 82.9109C93.5126 83.0758 90.8374 81.804 90.8374 81.804L86.3253 82.594C86.3253 82.594 93.1736 84.1783 93.6546 84.4952C94.1355 84.8121 93.9889 86.3921 93.9889 86.3921L92.0055 87.3427C92.0055 87.3427 94.0119 87.1864 94.0119 88.2933C94.0119 89.4001 94.0118 90.5114 93.1736 90.5114H92.3399C92.3399 90.5114 94.1722 92.2476 93.6775 92.7251C93.0859 93.2408 92.31 93.5247 91.5062 93.5194C90.6679 93.5194 88.6661 94.4657 86.3253 95.2557C83.9846 96.0457 80.4803 97.4694 78.6388 97.7863C76.7973 98.1032 74.1313 98.42 74.1313 98.42C74.1313 98.42 73.9619 94.3051 73.6275 93.0376C73.2931 91.7701 72.6243 89.3958 72.6243 89.3958L73.6275 88.927Z" fill="white" stroke="#313131" stroke-width="0.8" stroke-linecap="round" stroke-linejoin="round"/>
<path d="M91.3547 87.6279H88.3972" stroke="#313131" stroke-width="0.8" stroke-linecap="round" stroke-linejoin="round"/>
<path d="M92.3405 90.5713L88.3972 91.5525" stroke="#313131" stroke-width="0.8" stroke-linecap="round" stroke-linejoin="round"/>
<path d="M32.6524 55.2471C30.4739 58.5059 27.9598 66.0069 27.9598 69.7574C27.9598 73.508 24.7748 87.8529 24.4393 93.0697C24.1038 98.2865 24.2739 101.563 27.6243 102.202C30.9748 102.842 41.5364 103.669 46.2335 103.177C50.9306 102.685 56.3126 102.69 63.6662 102.69C71.0197 102.69 74.5633 102.202 74.5633 102.202C75.0349 99.885 75.3694 97.5432 75.5652 95.1886C75.7352 92.2561 74.5633 87.8529 74.0577 87.8529C73.5521 87.8529 65.5091 89.1582 58.6381 89.9718C51.7671 90.7854 48.412 89.6455 47.2401 89.1582C46.7148 88.9001 46.147 88.7337 45.5625 88.6665V86.5476L43.5495 86.3867L45.3879 74.9742C45.3879 74.9742 46.9 73.9952 47.4009 72.8553C47.9019 71.7154 48.5729 65.8415 48.2374 62.2564C47.9019 58.6713 44.3813 56.5479 44.3813 56.5479" fill="white"/>
<path d="M32.6524 55.2471C30.4739 58.5059 27.9598 66.0069 27.9598 69.7574C27.9598 73.508 24.7748 87.8529 24.4393 93.0697C24.1038 98.2865 24.2739 101.563 27.6243 102.202C30.9748 102.842 41.5364 103.669 46.2335 103.177C50.9306 102.685 56.3126 102.69 63.6662 102.69C71.0197 102.69 74.5633 102.202 74.5633 102.202C75.0349 99.885 75.3694 97.5432 75.5652 95.1886C75.7352 92.2561 74.5633 87.8529 74.0577 87.8529C73.5521 87.8529 65.5091 89.1583 58.6381 89.9718C51.7671 90.7854 48.412 89.6455 47.2401 89.1582C46.7148 88.9001 46.147 88.7337 45.5625 88.6665V86.5476L43.5495 86.3867L45.3879 74.9742C45.3879 74.9742 46.9 73.9952 47.4009 72.8553C47.9019 71.7154 48.5729 65.8415 48.2374 62.2564C47.9019 58.6713 44.3813 56.5479 44.3813 56.5479" stroke="#313131" stroke-width="0.8" stroke-linecap="round" stroke-linejoin="round"/>
<path d="M43.0499 87.6279C43.0499 87.6279 41.8038 90.2673 37.135 92.534" stroke="#313131" stroke-width="0.8" stroke-linecap="round" stroke-linejoin="round"/>
<path d="M44.0357 89.5889C44.0357 89.5889 36.7733 95.2677 35.1633 97.4385" stroke="#313131" stroke-width="0.8" stroke-linecap="round" stroke-linejoin="round"/>
<path d="M28.2627 91.552C28.2627 91.552 34.6017 91.3862 39.1066 88.6084" stroke="#313131" stroke-width="0.8" stroke-linecap="round" stroke-linejoin="round"/>
<path d="M45.0216 73.8897C45.0216 73.8897 43.3591 71.8535 39.1067 69.9648" stroke="#313131" stroke-width="0.8" stroke-linecap="round" stroke-linejoin="round"/>
</svg>
