<svg width="27" height="27" viewBox="0 0 27 27" fill="none" xmlns="http://www.w3.org/2000/svg">
<g clip-path="url(#clip0_6977_114796)">
<path d="M22.9167 12.5085C22.9167 12.6737 22.999 12.8273 23.1322 12.9249C23.5535 13.2335 23.9345 13.5762 24.2751 13.9531C24.6729 14.3932 25.0157 14.8757 25.3035 15.4004C25.5912 15.9251 25.8028 16.4795 25.9382 17.0635C26.0736 17.6475 26.1498 18.2441 26.1667 18.8535C26.1667 19.8607 25.9763 20.8086 25.5955 21.6973C25.2146 22.5859 24.6899 23.3603 24.0212 24.0205C23.3526 24.6807 22.5782 25.2012 21.698 25.582C20.8178 25.9629 19.8699 26.1576 18.8542 26.166C18.0841 26.166 17.3393 26.0518 16.6199 25.8232C15.9005 25.5947 15.2403 25.2646 14.6394 24.833C14.0385 24.4014 13.5053 23.8851 13.0398 23.2842C12.6461 22.776 12.3281 22.2224 12.0858 21.6234C12.006 21.4262 11.8182 21.291 11.6056 21.291H6.87622H2.29175C2.01561 21.291 1.79175 21.0672 1.79175 20.791V2.29102C1.79175 2.01487 2.01561 1.79102 2.29175 1.79102H4.54175C4.81789 1.79102 5.04175 1.56716 5.04175 1.29102V0.666016C5.04175 0.389873 5.26561 0.166016 5.54175 0.166016H6.16675C6.44289 0.166016 6.66675 0.389873 6.66675 0.666016V1.29102C6.66675 1.56716 6.89061 1.79102 7.16675 1.79102H17.5417C17.8179 1.79102 18.0417 1.56716 18.0417 1.29102V0.666016C18.0417 0.389873 18.2656 0.166016 18.5417 0.166016H19.1667C19.4429 0.166016 19.6667 0.389873 19.6667 0.666016V1.29102C19.6667 1.56716 19.8906 1.79102 20.1667 1.79102H22.4167C22.6929 1.79102 22.9167 2.01487 22.9167 2.29102V12.5085ZM3.91675 3.41602C3.64061 3.41602 3.41675 3.63987 3.41675 3.91602V6.16602C3.41675 6.44216 3.64061 6.66602 3.91675 6.66602H20.7917C21.0679 6.66602 21.2917 6.44216 21.2917 6.16602V3.91602C21.2917 3.63987 21.0679 3.41602 20.7917 3.41602H20.1667C19.8906 3.41602 19.6667 3.63987 19.6667 3.91602V4.54102C19.6667 4.81716 19.4429 5.04102 19.1667 5.04102H18.5417C18.2656 5.04102 18.0417 4.81716 18.0417 4.54102V3.91602C18.0417 3.63987 17.8179 3.41602 17.5417 3.41602H7.16675C6.89061 3.41602 6.66675 3.63987 6.66675 3.91602V4.54102C6.66675 4.81716 6.44289 5.04102 6.16675 5.04102H5.54175C5.26561 5.04102 5.04175 4.81716 5.04175 4.54102V3.91602C5.04175 3.63987 4.81789 3.41602 4.54175 3.41602H3.91675ZM11.0291 19.666C11.3243 19.666 11.5542 19.4115 11.5456 19.1165C11.543 19.0297 11.5417 18.942 11.5417 18.8535C11.5417 18.1257 11.6433 17.4189 11.8464 16.7334C11.9747 16.3006 12.1451 15.8829 12.3577 15.4804C12.5175 15.1779 12.31 14.791 11.9678 14.791C11.7325 14.791 11.5417 14.6003 11.5417 14.3649V13.666C11.5417 13.3899 11.7656 13.166 12.0417 13.166H12.8824C13.0394 13.166 13.1667 13.2933 13.1667 13.4503C13.1667 13.7188 13.5159 13.8469 13.7064 13.6577C13.9018 13.4638 14.107 13.283 14.322 13.1152C14.7452 12.7852 15.2022 12.5016 15.6931 12.2646C16.184 12.0277 16.696 11.8499 17.2292 11.7314C17.7625 11.613 18.3041 11.5495 18.8542 11.541C19.4574 11.541 20.0433 11.6119 20.6121 11.7538C20.9479 11.8375 21.2917 11.5955 21.2917 11.2494V8.79102C21.2917 8.51487 21.0679 8.29102 20.7917 8.29102H3.91675C3.64061 8.29102 3.41675 8.51487 3.41675 8.79102V19.166C3.41675 19.4422 3.64061 19.666 3.91675 19.666H11.0291ZM18.8542 24.541C19.6414 24.541 20.3777 24.3929 21.0632 24.0967C21.7488 23.8005 22.3497 23.3942 22.866 22.8779C23.3822 22.3617 23.7885 21.7607 24.0847 21.0752C24.3809 20.3896 24.5333 19.6491 24.5417 18.8535C24.5417 18.0664 24.3936 17.3301 24.0974 16.6445C23.8012 15.959 23.3949 15.3581 22.8787 14.8418C22.3624 14.3255 21.7615 13.9193 21.0759 13.623C20.3904 13.3268 19.6498 13.1745 18.8542 13.166C18.0671 13.166 17.3308 13.3141 16.6453 13.6104C15.9597 13.9066 15.3588 14.3128 14.8425 14.8291C14.3263 15.3454 13.92 15.9463 13.6238 16.6318C13.3276 17.3174 13.1752 18.0579 13.1667 18.8535C13.1667 19.6406 13.3149 20.377 13.6111 21.0625C13.9073 21.748 14.3136 22.349 14.8298 22.8652C15.3461 23.3815 15.947 23.7878 16.6326 24.084C17.3181 24.3802 18.0587 24.5326 18.8542 24.541ZM19.6667 17.541C19.6667 17.8172 19.8906 18.041 20.1667 18.041H21.6042C21.8804 18.041 22.1042 18.2649 22.1042 18.541V19.166C22.1042 19.4422 21.8804 19.666 21.6042 19.666H18.5417C18.2656 19.666 18.0417 19.4422 18.0417 19.166V15.291C18.0417 15.0149 18.2656 14.791 18.5417 14.791H19.1667C19.4429 14.791 19.6667 15.0149 19.6667 15.291V17.541ZM5.04175 13.666C5.04175 13.3899 5.26561 13.166 5.54175 13.166H6.16675C6.44289 13.166 6.66675 13.3899 6.66675 13.666V14.291C6.66675 14.5672 6.44289 14.791 6.16675 14.791H5.54175C5.26561 14.791 5.04175 14.5672 5.04175 14.291V13.666ZM8.29175 13.666C8.29175 13.3899 8.51561 13.166 8.79175 13.166H9.41675C9.69289 13.166 9.91675 13.3899 9.91675 13.666V14.291C9.91675 14.5672 9.69289 14.791 9.41675 14.791H8.79175C8.51561 14.791 8.29175 14.5672 8.29175 14.291V13.666ZM8.29175 10.416C8.29175 10.1399 8.51561 9.91602 8.79175 9.91602H9.41675C9.69289 9.91602 9.91675 10.1399 9.91675 10.416V11.041C9.91675 11.3172 9.69289 11.541 9.41675 11.541H8.79175C8.51561 11.541 8.29175 11.3172 8.29175 11.041V10.416ZM8.29175 16.916C8.29175 16.6399 8.51561 16.416 8.79175 16.416H9.41675C9.69289 16.416 9.91675 16.6399 9.91675 16.916V17.541C9.91675 17.8172 9.69289 18.041 9.41675 18.041H8.79175C8.51561 18.041 8.29175 17.8172 8.29175 17.541V16.916ZM13.1667 11.041C13.1667 11.3172 12.9429 11.541 12.6667 11.541H12.0417C11.7656 11.541 11.5417 11.3172 11.5417 11.041V10.416C11.5417 10.1399 11.7656 9.91602 12.0417 9.91602H12.6667C12.9429 9.91602 13.1667 10.1399 13.1667 10.416V11.041ZM16.4167 11.041C16.4167 11.3172 16.1929 11.541 15.9167 11.541H15.2917C15.0156 11.541 14.7917 11.3172 14.7917 11.041V10.416C14.7917 10.1399 15.0156 9.91602 15.2917 9.91602H15.9167C16.1929 9.91602 16.4167 10.1399 16.4167 10.416V11.041ZM5.04175 10.416C5.04175 10.1399 5.26561 9.91602 5.54175 9.91602H6.16675C6.44289 9.91602 6.66675 10.1399 6.66675 10.416V11.041C6.66675 11.3172 6.44289 11.541 6.16675 11.541H5.54175C5.26561 11.541 5.04175 11.3172 5.04175 11.041V10.416Z" fill="currentColor"/>
</g>
<defs>
<clipPath id="clip0_6977_114796">
<rect width="26" height="26" fill="white" transform="translate(0.166748 0.166016)"/>
</clipPath>
</defs>
</svg>
